<?xml version="1.0" standalone="no"?>
<!DOCTYPE svg PUBLIC "-//W3C//DTD SVG 20010904//EN"
 "http://www.w3.org/TR/2001/REC-SVG-20010904/DTD/svg10.dtd">
<svg version="1.0" xmlns="http://www.w3.org/2000/svg"
 width="1080.000000pt" height="1065.000000pt" viewBox="0 0 1080.000000 1065.000000"
 preserveAspectRatio="xMidYMid meet">

<g transform="translate(0.000000,1065.000000) scale(0.100000,-0.100000)"
fill="#000000" stroke="none">
<path d="M0 5325 l0 -5325 2261 0 2262 0 -5 169 c-4 127 -3 174 7 188 51 74
177 340 201 423 29 103 53 199 63 256 13 74 14 195 2 226 -5 13 -17 50 -26 83
-9 33 -23 73 -31 88 -21 42 -18 49 19 47 17 -1 37 -2 44 -1 11 1 53 111 53
142 0 9 20 61 44 116 24 55 49 120 56 144 6 24 25 84 42 132 23 67 33 85 40
73 5 -9 6 -21 3 -26 -9 -14 -33 -173 -40 -260 -3 -41 -8 -85 -11 -98 -2 -12
-7 -145 -9 -295 -3 -166 -10 -306 -19 -360 -17 -101 -12 -126 37 -200 47 -71
66 -86 128 -103 75 -19 142 -18 168 4 44 36 45 154 2 206 -12 14 -11 30 8 109
11 51 25 121 30 157 6 36 21 133 35 215 14 83 33 211 42 285 10 74 20 139 24
143 8 9 41 -125 85 -338 15 -71 30 -134 35 -138 4 -5 34 -2 66 7 156 41 464
68 464 40 0 -21 17 -17 23 6 5 18 14 20 80 20 40 0 123 3 183 7 101 6 108 5
95 -10 -7 -10 -22 -17 -32 -17 -11 0 -19 -4 -19 -8 0 -4 -24 -26 -52 -47 -108
-81 -262 -218 -311 -276 -29 -34 -56 -58 -64 -55 -7 3 -13 -2 -13 -11 0 -23
-53 -103 -68 -103 -7 0 -11 -4 -7 -9 3 -6 -24 -56 -61 -112 -108 -166 -156
-284 -136 -337 67 -174 109 -307 132 -424 l11 -58 325 0 c281 0 324 2 324 15
0 10 10 15 34 15 18 0 53 -7 76 -15 37 -13 299 -15 2121 -15 l2079 0 0 5325 0
5325 -5400 0 -5400 0 0 -5325z m5273 5043 c27 -14 16 -19 -19 -8 -16 5 -45 14
-64 19 -32 10 -31 10 15 5 28 -3 58 -10 68 -16z m-57 -46 c-16 -2 -32 0 -37 5
-5 5 7 7 29 4 34 -5 35 -6 8 -9z m-101 -2 c4 -6 -6 -10 -24 -10 -16 0 -33 5
-36 10 -4 6 6 10 24 10 16 0 33 -4 36 -10z m186 -27 c13 -16 12 -17 -3 -4 -10
7 -18 15 -18 17 0 8 8 3 21 -13z m-322 -2 c14 -9 -25 -17 -129 -27 -30 -3 -62
-7 -70 -10 -34 -12 16 -22 94 -19 l81 2 -65 -9 c-36 -5 -73 -14 -83 -19 -10
-5 -22 -7 -27 -4 -12 7 -50 -12 -50 -25 0 -6 25 -10 55 -10 30 0 55 -4 55 -9
0 -5 -38 -10 -84 -10 -47 0 -89 -2 -93 -3 -4 -2 -10 2 -12 7 -3 6 8 12 25 15
18 3 29 11 29 22 0 9 3 20 7 23 4 4 4 13 2 20 -7 18 52 36 124 39 32 1 67 8
77 14 24 14 45 15 64 3z m1039 -41 c7 -11 9 -20 4 -20 -4 0 -13 9 -20 20 -7
11 -9 20 -4 20 4 0 13 -9 20 -20z m-1334 -24 c-21 -15 -30 -14 -19 3 3 6 14
11 23 11 13 0 13 -2 -4 -14z m245 -42 c2 -2 -23 -4 -57 -4 -35 0 -62 4 -62 10
0 9 108 3 119 -6z m58 -30 c-3 -3 -12 -4 -19 -1 -8 3 -5 6 6 6 11 1 17 -2 13
-5z m-87 -13 c0 -5 10 -13 23 -18 25 -9 -113 -21 -171 -14 -56 6 -24 16 51 16
51 0 71 4 70 13 -2 6 4 12 12 12 8 0 15 -4 15 -9z m50 -1 c0 -5 -7 -7 -15 -4
-8 4 -15 8 -15 10 0 2 7 4 15 4 8 0 15 -4 15 -10z m160 0 c0 -5 -20 -10 -44
-10 -25 0 -48 -5 -51 -11 -5 -7 21 -9 84 -7 50 2 91 0 91 -3 0 -7 -114 -19
-187 -19 -52 0 -71 15 -35 26 9 3 26 10 37 14 20 9 53 16 88 19 9 0 17 -3 17
-9z m-223 -66 c-3 -3 -12 -4 -19 -1 -8 3 -5 6 6 6 11 1 17 -2 13 -5z m373 -4
c-31 -6 -32 -8 -8 -9 15 0 30 -6 33 -12 5 -7 -34 -10 -129 -7 -131 2 -171 11
-103 23 44 7 110 11 182 12 50 0 54 -1 25 -7z m970 -62 c0 -13 -23 -5 -28 10
-2 7 2 10 12 6 9 -3 16 -11 16 -16z m-1072 -25 c12 -3 22 -9 22 -14 0 -5 8 -9
17 -9 9 0 13 -3 10 -7 -4 -3 -43 -7 -86 -7 -44 -1 -74 2 -68 6 7 4 28 8 47 8
31 1 32 2 13 10 -13 5 -23 15 -23 21 0 7 8 9 23 4 12 -3 32 -9 45 -12z m-23
-93 c-3 -5 -10 -10 -16 -10 -5 0 -9 5 -9 10 0 6 7 10 16 10 8 0 12 -4 9 -10z
m525 0 c-36 -11 -52 -11 -45 0 3 6 21 10 38 9 31 -1 31 -1 7 -9z m-149 -19
c-11 -11 -38 -20 -67 -23 -27 -2 -63 -12 -79 -21 -17 -9 -41 -21 -55 -28 -162
-74 -320 -175 -320 -202 0 -7 7 -4 14 6 19 24 311 171 384 193 87 26 188 43
212 37 12 -3 32 0 45 7 25 13 98 7 125 -10 11 -8 4 -10 -25 -9 -107 3 -275
-20 -366 -51 -52 -17 -101 -37 -109 -44 -8 -6 -36 -22 -61 -34 -26 -12 -52
-29 -59 -37 -14 -17 -7 -19 18 -5 69 39 349 123 392 117 24 -3 123 14 143 25
12 6 17 5 17 -6 0 -16 -69 -50 -124 -60 -21 -4 -36 -10 -33 -13 6 -5 129 12
188 28 52 13 70 10 28 -5 -19 -8 -60 -17 -90 -20 -308 -39 -524 -128 -709
-292 -30 -27 -63 -59 -73 -72 -11 -12 -35 -39 -54 -60 -70 -73 -160 -202 -206
-294 -57 -113 -113 -259 -121 -313 l-6 -40 14 40 c29 85 105 245 150 321 101
165 206 279 389 418 127 96 235 159 355 205 142 54 302 79 302 46 0 -11 -11
-15 -37 -16 -21 0 -60 -9 -88 -19 -63 -23 -54 -25 26 -4 58 15 64 15 75 -1 10
-14 23 -16 71 -10 81 9 48 -9 -46 -25 -82 -14 -261 -72 -363 -118 -94 -43
-244 -133 -306 -185 -48 -40 -172 -171 -172 -183 0 -2 39 35 88 82 90 88 267
213 357 252 173 73 345 120 509 137 68 6 70 -2 4 -16 -24 -6 -70 -20 -103 -32
l-60 -22 39 -3 40 -3 -69 -24 c-37 -13 -77 -32 -89 -42 -27 -24 -70 -44 -183
-87 -80 -31 -185 -82 -245 -120 -26 -16 -22 -29 5 -16 14 7 9 0 -13 -19 -19
-17 -40 -29 -46 -27 -5 2 -21 -3 -35 -10 -23 -14 -23 -14 -1 -9 12 4 22 2 22
-4 0 -10 -32 -24 -46 -19 -5 2 -9 0 -9 -4 0 -14 -48 -56 -59 -52 -7 3 -21 -4
-31 -16 -10 -11 -13 -20 -7 -20 6 0 13 4 17 9 3 5 18 9 33 9 35 -1 60 12 120
65 133 116 344 240 507 299 72 26 230 59 275 57 33 -1 -85 -39 -122 -39 -15 0
-30 -5 -34 -11 -5 -9 18 -11 89 -7 124 7 162 -11 57 -26 -122 -18 -222 -40
-238 -53 -9 -8 -11 -12 -4 -8 7 3 15 -1 19 -10 5 -14 15 -16 61 -10 30 4 62 9
71 12 9 3 -3 -7 -27 -21 -24 -14 -61 -30 -83 -36 -21 -6 -39 -15 -39 -19 0 -5
-17 -11 -37 -14 -45 -6 -216 -67 -209 -74 3 -3 18 -1 33 4 15 6 34 8 42 5 16
-5 -106 -37 -181 -47 -25 -3 -51 -12 -57 -19 -9 -11 -6 -12 16 -9 22 4 25 2
13 -6 -8 -6 -35 -13 -60 -17 -45 -6 -110 -38 -110 -54 0 -4 -17 -16 -37 -26
l-38 -19 45 -5 c44 -5 44 -6 15 -13 -36 -9 -92 -63 -73 -70 8 -3 -22 -37 -70
-83 -86 -80 -175 -200 -169 -225 2 -8 2 -11 0 -6 -8 13 -23 -3 -23 -25 0 -11
-14 -48 -30 -82 -17 -34 -33 -79 -36 -101 -3 -22 -14 -62 -24 -90 -38 -101
-54 -303 -39 -475 5 -63 14 -182 19 -265 5 -82 11 -159 13 -170 9 -40 18 -113
22 -169 2 -31 16 -87 30 -123 20 -50 24 -68 14 -73 -9 -6 -8 -22 5 -72 26 -93
55 -265 56 -327 0 -44 3 -52 16 -47 9 3 19 6 24 6 8 0 5 40 -6 70 -3 8 -7 64
-9 123 -5 115 -19 174 -44 180 -11 3 -9 5 5 6 26 1 38 45 18 62 -8 6 -14 26
-14 45 l0 33 50 -26 c41 -21 57 -24 97 -18 41 6 56 14 101 62 l52 55 30 -32
c16 -18 36 -44 43 -58 10 -22 19 -27 47 -27 23 1 41 -6 51 -19 19 -23 43 -13
36 16 -4 15 -1 18 16 13 12 -4 32 -11 45 -18 39 -19 75 20 87 97 4 26 12 40
26 43 12 3 23 20 29 43 9 32 6 46 -15 94 -14 31 -29 57 -35 57 -5 1 -15 2 -20
3 -6 0 -14 6 -18 12 -4 6 -26 15 -48 18 -25 5 -50 17 -63 32 -13 14 -32 24
-49 24 -16 0 -32 8 -39 19 -8 13 -29 20 -74 25 -36 4 -67 14 -73 22 -15 20
-114 45 -156 39 -19 -2 -53 -1 -75 4 -33 6 -36 9 -20 15 56 21 59 26 10 21
-27 -3 -54 -10 -59 -15 -16 -16 -26 -11 -26 13 0 13 -5 28 -11 34 -18 18 -21
94 -9 186 7 45 15 109 20 142 10 77 55 256 66 264 5 3 10 24 12 45 3 52 83
202 136 255 70 71 190 176 221 196 17 10 36 27 43 37 7 10 20 18 28 18 8 0 17
7 20 15 4 8 24 18 45 21 21 4 36 11 33 15 -9 15 59 38 132 44 38 4 80 8 93 11
18 4 22 2 18 -10 -5 -12 0 -16 21 -16 19 0 23 3 13 9 -22 14 -3 31 35 31 33 0
46 14 22 23 -7 2 -10 8 -6 12 8 9 71 -7 129 -31 33 -15 38 -14 68 4 37 22 24
42 -14 22 -18 -10 -28 -9 -51 4 l-29 15 33 1 c17 0 32 5 32 11 0 8 14 10 40 6
25 -3 40 -1 43 7 3 8 12 8 37 -1 38 -14 57 -8 39 13 -9 11 -8 14 5 14 9 0 16
5 16 11 0 8 4 8 15 -1 8 -6 13 -17 12 -22 -1 -6 4 -13 11 -15 6 -3 12 0 12 6
0 22 106 9 112 -13 2 -9 9 -9 28 1 20 10 21 13 6 13 -15 0 -17 5 -11 27 13 52
9 63 -21 63 -14 0 -23 4 -19 10 3 6 18 10 32 10 22 0 24 2 13 15 -7 9 -11 18
-8 20 9 9 38 -7 38 -20 0 -8 5 -17 12 -21 6 -4 8 -3 5 2 -3 6 -2 16 2 22 10
16 41 5 41 -14 0 -8 7 -14 15 -14 11 0 15 11 15 41 0 28 4 39 13 37 6 -3 12
-14 13 -25 2 -34 13 -55 25 -47 7 4 10 34 7 83 -2 54 0 75 9 74 17 -3 10 58
-10 88 -10 14 -17 36 -16 50 1 49 -11 109 -27 134 -9 14 -14 28 -11 31 10 11
67 -89 62 -107 -3 -10 -1 -20 4 -23 6 -4 7 -14 4 -23 -5 -13 -1 -15 23 -10 27
5 27 4 9 -9 -10 -8 -22 -14 -27 -14 -4 0 -8 -4 -8 -10 0 -5 6 -10 13 -10 17 0
36 -45 26 -63 -6 -10 -4 -17 6 -21 8 -3 15 -15 15 -26 0 -16 -5 -19 -26 -16
-21 4 -23 2 -14 -9 8 -10 8 -14 -1 -17 -10 -3 -8 -11 4 -28 l17 -24 0 22 c0
17 6 22 28 22 25 -1 26 -2 9 -14 -16 -12 -17 -17 -5 -38 7 -12 18 -27 23 -31
6 -5 3 -7 -7 -3 -10 3 -18 1 -18 -3 0 -5 -3 -18 -6 -28 -6 -15 -4 -16 7 -5 15
14 49 16 49 3 0 -5 -7 -12 -16 -15 -37 -14 -1 -18 59 -6 46 9 69 10 83 2 17
-10 16 -11 -11 -18 -17 -4 -33 -12 -37 -18 -7 -11 46 -48 65 -44 24 4 77 -14
77 -26 0 -11 92 -60 115 -61 16 0 147 -127 230 -221 31 -35 41 -54 34 -61 -7
-7 -7 -24 2 -54 10 -37 13 -41 20 -24 7 18 8 18 8 -5 0 -14 -3 -32 -9 -40 -5
-9 -5 -19 1 -26 5 -7 9 -16 7 -20 -3 -10 31 -65 45 -75 17 -12 2 -43 -23 -49
-17 -5 -24 -12 -22 -26 1 -10 3 -30 4 -44 0 -13 6 -29 13 -35 7 -5 17 -25 23
-43 11 -31 10 -33 -11 -30 -14 2 -23 11 -25 26 -3 20 -11 26 -29 20 -5 -2 -8
-21 -8 -42 0 -34 -4 -41 -25 -46 -24 -6 -24 -6 -5 -17 19 -11 19 -12 -5 -21
l-25 -9 23 -7 c12 -4 26 -5 31 -1 5 3 12 1 16 -5 3 -5 2 -10 -3 -10 -10 0 -47
-71 -43 -84 1 -4 -4 -15 -11 -23 -10 -12 -9 -18 6 -29 17 -12 17 -14 3 -20
-11 -4 -17 -18 -17 -39 0 -25 -7 -39 -27 -55 -20 -15 -24 -23 -15 -29 15 -9 6
-37 -14 -45 -22 -8 -18 -73 4 -78 25 -7 40 -98 19 -113 -7 -5 -16 -18 -20 -27
-4 -12 -17 -18 -36 -18 -34 0 -112 28 -123 44 -5 8 -11 7 -20 -2 -6 -6 -25
-12 -40 -12 -15 0 -28 -4 -28 -9 0 -5 -24 -11 -52 -14 -50 -4 -80 -12 -153
-43 -17 -7 -49 -11 -70 -10 -22 2 -34 2 -27 -1 23 -9 12 -23 -13 -17 -14 3
-39 1 -55 -6 -24 -10 -33 -10 -45 0 -11 9 -12 15 -5 20 6 4 8 14 5 22 -6 14
-10 14 -43 -3 -85 -42 -123 -59 -132 -59 -14 0 -50 -32 -50 -44 0 -5 -17 -26
-39 -46 -52 -48 -70 -87 -77 -162 -8 -101 -3 -273 10 -325 l12 -48 7 54 c7 57
20 81 46 81 9 0 30 9 46 20 30 20 105 28 105 11 0 -5 -6 -11 -12 -13 -7 -3 -3
-7 9 -10 12 -3 34 0 49 8 14 8 38 14 52 14 14 0 33 7 42 15 12 10 42 15 110
15 52 0 114 0 137 0 23 1 44 -3 47 -8 7 -12 -76 -22 -179 -22 -100 0 -116 -8
-74 -39 20 -15 34 -20 41 -13 5 5 18 7 29 5 15 -4 17 -8 8 -19 -9 -11 -7 -15
7 -20 50 -16 64 -25 64 -43 0 -18 9 -20 103 -24 56 -2 118 -7 138 -11 l36 -6
7 48 c3 27 9 51 12 54 3 3 23 1 45 -5 l41 -10 -7 -81 c-4 -45 -20 -148 -35
-231 -28 -150 -44 -259 -35 -240 2 6 23 96 45 200 91 436 86 417 122 449 18
17 25 27 14 23 -15 -6 -17 -4 -13 15 4 12 1 28 -5 35 -18 22 22 65 73 81 24 8
71 17 104 20 59 7 60 8 63 40 2 17 8 32 14 32 7 0 9 -15 5 -40 -3 -23 -1 -40
6 -43 6 -2 -30 -9 -79 -16 -49 -7 -104 -15 -121 -17 -18 -3 -33 -10 -33 -15 0
-7 12 -8 31 -4 32 7 32 7 26 -28 -4 -25 -1 -39 10 -48 8 -7 29 -33 46 -58 17
-25 47 -60 66 -78 47 -42 23 -43 -26 0 -53 45 -72 68 -84 100 -20 50 -29 37
-54 -69 -20 -87 -20 -108 2 -100 9 4 20 1 24 -6 11 -18 129 -18 129 0 0 16 12
15 35 -1 17 -13 17 -16 -4 -82 -11 -38 -21 -76 -21 -85 0 -10 -7 -37 -16 -61
-9 -24 -17 -48 -18 -54 -2 -10 -29 -100 -47 -161 -5 -17 -9 -38 -9 -47 0 -27
-23 -69 -31 -56 -3 6 -6 -13 -4 -42 1 -30 -3 -63 -10 -74 -19 -33 -61 -185
-67 -242 -1 -7 -15 -17 -31 -23 -17 -5 -28 -13 -24 -16 5 -6 91 -32 175 -53
33 -9 48 -1 39 23 -3 7 1 42 9 77 7 35 13 84 13 109 0 73 -23 27 -44 -87 -10
-54 -22 -102 -28 -108 -17 -18 2 161 24 228 12 34 25 89 30 122 11 84 20 118
34 135 8 9 12 33 10 58 -3 31 0 42 11 42 8 0 14 10 14 24 0 13 11 47 24 75
l24 52 6 -54 c8 -63 0 -107 -22 -124 -9 -7 -11 -13 -4 -13 15 0 14 -83 -3
-195 -7 -49 -16 -121 -20 -160 -5 -65 -4 -68 9 -45 9 14 15 36 16 50 0 51 29
160 48 184 l19 25 7 -46 c4 -32 2 -49 -6 -56 -8 -5 2 -7 27 -3 22 3 36 2 30
-2 -5 -4 -10 -29 -10 -57 0 -27 -4 -67 -8 -88 -13 -60 9 -36 23 25 7 29 18 62
23 73 6 11 12 22 13 25 1 6 13 38 25 68 5 12 13 22 19 22 15 0 12 -56 -6 -98
-33 -76 -34 -91 -11 -112 11 -11 24 -20 29 -20 11 0 10 18 -1 25 -18 10 -8 45
12 45 15 0 17 -3 9 -13 -8 -9 -3 -18 21 -34 18 -12 43 -23 55 -25 20 -2 26 4
38 37 7 22 14 61 14 86 0 40 -6 54 -39 94 -48 58 -61 101 -61 204 0 116 34
212 107 300 69 84 117 109 212 113 39 1 71 6 71 10 0 12 -47 21 -62 12 -7 -4
-6 1 3 12 12 14 15 35 13 79 -1 33 1 62 6 65 5 3 11 17 12 30 3 19 -3 25 -32
33 -64 18 -11 19 93 2 99 -16 264 -58 276 -71 3 -3 -10 -3 -29 1 -19 3 -55 7
-80 9 -25 1 -55 8 -67 14 -25 14 -77 16 -69 3 3 -4 26 -14 51 -21 53 -15 57
-31 14 -70 -17 -15 -28 -33 -25 -39 10 -15 79 56 72 75 -4 9 2 14 16 14 17 0
19 -3 10 -12 -9 -9 -8 -16 6 -31 16 -18 16 -20 -5 -36 -18 -15 -21 -25 -16
-60 5 -33 2 -45 -13 -56 -11 -8 -27 -15 -36 -15 -24 0 -30 -15 -22 -55 6 -34
24 -49 24 -21 0 8 7 16 14 19 11 5 17 -5 22 -39 4 -28 11 -44 20 -44 8 0 14
-2 14 -4 0 -2 3 -11 6 -20 4 -11 -2 -19 -17 -25 -24 -9 -24 -9 6 -16 17 -3 39
-10 50 -15 17 -7 17 -9 3 -9 -28 -1 -21 -17 12 -31 33 -14 60 -40 41 -40 -6 0
-11 -8 -11 -17 -1 -17 -1 -17 -14 -1 -16 21 -26 13 -26 -19 0 -14 6 -23 15
-23 8 0 15 -7 15 -16 0 -12 -9 -15 -37 -12 -28 2 -37 -1 -39 -15 -1 -12 15
-25 59 -46 34 -17 95 -53 135 -80 41 -28 83 -51 94 -51 11 0 34 10 51 22 l32
22 -24 -27 c-39 -43 -80 -45 -137 -5 -27 18 -69 42 -94 52 -25 10 -53 22 -62
27 -32 16 -41 10 -23 -17 20 -32 17 -36 -21 -25 -22 6 -28 13 -26 29 2 13 -5
25 -17 32 -20 10 -21 9 -15 -27 3 -21 8 -41 10 -44 6 -10 -19 -78 -27 -74 -11
7 -31 -59 -28 -92 4 -57 0 -72 -23 -75 -18 -2 -23 -10 -23 -31 -1 -15 5 -33
12 -39 18 -15 16 -31 -7 -60 -19 -25 -19 -25 4 -47 12 -11 29 -21 36 -21 10 0
11 -3 3 -11 -10 -10 -36 -7 -113 12 -11 3 -15 -4 -13 -30 1 -22 -5 -39 -14
-46 -12 -9 -14 -20 -9 -41 16 -66 18 -84 8 -84 -6 0 -13 6 -15 13 -4 8 -6 7
-6 -3 -2 -42 155 -67 252 -40 93 26 149 100 218 290 13 36 25 57 27 48 2 -9
-6 -38 -17 -64 -12 -26 -21 -48 -21 -50 0 -9 37 -3 47 7 6 6 34 14 63 17 l53
7 16 55 c11 35 23 56 34 58 20 4 21 -10 2 -63 -8 -22 -15 -44 -15 -48 0 -17
106 49 146 91 22 23 44 42 47 42 12 0 8 -25 -9 -59 -19 -38 -18 -41 18 -34 22
4 29 12 34 40 5 26 2 37 -11 47 -16 12 -16 13 0 29 9 9 29 17 44 17 22 0 29 7
40 38 7 20 32 78 56 127 23 50 61 129 83 178 22 48 44 87 47 87 4 0 4 -33 1
-72 l-6 -73 17 33 c9 17 19 32 23 32 3 0 0 -38 -8 -85 -15 -88 -11 -139 11
-170 13 -16 19 -13 85 44 39 34 88 82 109 108 21 26 57 67 79 92 39 42 45 45
102 49 57 4 62 3 98 -31 l38 -35 3 -201 c2 -111 -1 -220 -6 -241 -6 -29 -6
-40 3 -41 38 -3 109 4 164 17 87 19 130 17 177 -9 37 -21 44 -32 88 -142 83
-205 97 -278 107 -530 5 -123 16 -260 25 -310 11 -59 15 -123 13 -185 -4 -88
-7 -101 -44 -169 -21 -40 -53 -89 -70 -109 l-30 -35 -13 84 c-15 102 -32 169
-43 169 -4 0 -5 -12 -3 -27 44 -273 43 -297 -12 -371 -20 -26 -45 -56 -56 -66
-16 -16 -181 -116 -191 -116 -2 0 -9 19 -16 43 l-13 42 -9 -50 c-10 -53 -43
-99 -66 -90 -8 3 -32 -14 -56 -38 -95 -95 -199 -124 -285 -79 -28 15 -59 22
-96 22 -48 0 -58 -4 -88 -34 -54 -54 -117 -86 -181 -91 -32 -3 -62 -7 -67 -11
-14 -8 -11 -42 5 -51 25 -14 30 -59 9 -80 -18 -18 -67 -93 -68 -103 -2 -15
-27 -50 -37 -50 -16 0 -58 -41 -58 -56 0 -7 -18 -19 -40 -25 -22 -7 -40 -18
-40 -26 0 -18 -37 -53 -56 -53 -8 0 -22 -7 -31 -15 -8 -8 -19 -12 -25 -9 -6 4
-8 3 -5 -3 3 -5 21 -8 39 -7 18 2 4 -4 -32 -12 -81 -19 -679 -32 -721 -16 -18
7 -36 30 -55 69 -24 48 -30 73 -32 149 -6 147 28 203 183 305 l94 62 -57 28
c-52 25 -54 28 -27 28 17 1 43 -6 59 -14 36 -19 42 -19 50 3 3 9 22 36 41 60
42 52 47 98 13 105 -13 3 -5 5 17 5 59 -1 65 1 65 17 0 8 -9 15 -19 15 -11 0
-23 5 -27 12 -5 8 4 9 35 4 35 -5 48 -2 74 16 69 49 143 89 181 98 39 9 43 7
75 -26 54 -55 82 -65 42 -15 -18 22 -36 41 -39 41 -15 0 -33 42 -26 62 5 17
12 19 45 14 31 -5 39 -3 39 9 0 8 -12 18 -27 21 -16 4 -38 16 -51 28 -26 24
-86 132 -119 215 -20 53 -22 54 -22 23 -1 -43 -17 -33 -32 21 l-12 42 -7 -38
c-4 -20 -14 -52 -22 -70 -9 -17 -21 -54 -27 -82 -14 -59 -47 -96 -91 -101 -35
-4 -50 -11 -50 -24 0 -4 9 -6 20 -3 12 3 22 -1 26 -11 4 -10 18 -16 40 -16 19
0 34 -4 34 -8 0 -9 33 -27 66 -37 18 -5 23 0 28 30 7 37 17 43 34 23 16 -21
25 -78 12 -78 -7 0 -28 -17 -47 -38 -22 -24 -36 -33 -40 -24 -8 21 -22 13 -25
-15 -3 -25 -7 -28 -47 -31 -48 -4 -76 12 -51 29 12 8 7 16 -28 48 -49 43 -131
67 -267 77 -74 6 -154 28 -143 39 3 3 19 0 37 -6 18 -6 55 -9 83 -7 46 5 110
-6 161 -27 17 -7 18 -6 6 13 -7 11 -23 26 -36 33 -12 7 -20 16 -17 21 3 4 9 6
14 3 14 -9 30 19 20 35 -14 22 -12 30 8 30 21 0 56 36 101 104 18 27 57 84 87
127 30 43 54 81 54 85 0 4 16 26 35 50 20 24 42 59 50 79 9 19 33 52 55 73 22
20 40 41 40 45 0 4 33 67 74 140 40 73 89 162 107 199 19 37 44 87 56 110 25
50 22 60 -10 30 -18 -17 -94 -56 -167 -86 -8 -3 -22 -10 -30 -16 -8 -5 -28
-15 -45 -22 l-30 -12 34 -4 c19 -2 40 -10 48 -18 27 -27 43 -17 43 28 0 57 16
37 23 -29 6 -52 -4 -76 -20 -50 -11 19 -50 27 -61 13 -5 -6 -19 -38 -31 -71
-12 -33 -31 -75 -42 -93 -10 -18 -19 -39 -19 -46 0 -8 -7 -19 -15 -26 -12 -10
-15 -9 -15 7 0 10 6 27 13 38 26 39 57 137 51 161 -5 18 -2 24 10 24 26 0 19
19 -11 31 -16 7 -38 16 -50 22 -12 5 -33 7 -48 3 -25 -6 -26 -9 -20 -59 7 -61
-9 -219 -25 -245 -10 -14 -10 -13 -5 8 3 14 8 86 11 160 5 143 8 150 56 150
41 0 207 89 275 147 32 27 79 65 105 83 45 31 68 60 48 60 -10 0 -159 -108
-225 -164 -62 -51 -176 -80 -284 -72 -77 6 -83 5 -70 -10 8 -10 29 -23 48 -31
39 -17 35 -28 -8 -18 -26 5 -89 46 -115 74 -37 40 -45 52 -47 73 -1 13 2 31 6
42 9 21 -8 36 -43 36 -25 0 -46 -17 -48 -37 -2 -29 -5 -33 -24 -33 -15 0 -20
-7 -20 -24 0 -31 16 -42 28 -20 12 21 44 11 36 -11 -4 -9 -1 -15 7 -16 8 0 4
-4 -9 -9 -12 -5 -29 -7 -38 -3 -13 5 -15 2 -10 -14 4 -12 1 -25 -9 -33 -8 -7
-15 -21 -15 -31 0 -21 -30 -27 -31 -6 0 13 -17 -21 -18 -38 -1 -6 14 -16 32
-23 57 -20 150 -113 184 -184 35 -71 48 -118 33 -118 -5 0 -10 11 -10 25 0 37
-19 74 -69 133 -50 60 -123 112 -160 112 -19 0 -22 -3 -14 -11 6 -6 9 -18 6
-25 -3 -8 0 -21 7 -29 15 -18 -1 -20 -18 -3 -10 10 -12 2 -10 -37 3 -47 1 -50
-19 -48 -16 2 -23 -3 -23 -14 0 -9 -5 -32 -12 -50 -8 -23 -9 -36 -1 -44 14
-14 4 -59 -14 -59 -10 0 -12 6 -8 20 3 11 2 20 -4 20 -5 0 -15 -26 -22 -57 -6
-32 -18 -68 -26 -81 -10 -16 -11 -27 -5 -35 11 -13 5 -64 -9 -73 -13 -8 -11
-52 2 -56 19 -6 2 -78 -18 -78 -20 0 -53 -29 -53 -46 0 -9 -11 -11 -37 -7 -21
3 -40 10 -43 14 -3 4 -26 13 -52 19 -58 15 -82 38 -49 47 14 4 24 16 28 34 5
27 7 28 19 12 7 -10 14 -31 14 -46 0 -41 16 -24 18 19 1 21 6 42 11 47 5 5 7
16 4 24 -3 8 -1 18 4 22 5 3 21 40 36 81 28 83 27 128 -4 156 -10 9 -19 21
-19 26 0 14 30 9 36 -7 12 -29 23 -14 44 58 12 39 29 87 38 105 15 31 15 35
-2 60 -34 53 -48 95 -41 128 6 33 48 77 85 89 11 3 20 10 20 15 0 16 -30 19
-57 5 -32 -17 -34 -16 -26 14 5 18 11 22 34 19 25 -4 29 -1 35 26 3 17 10 36
15 42 10 12 -42 64 -64 64 -13 0 -172 47 -202 60 -11 5 -54 16 -95 26 -41 9
-82 23 -91 30 -8 8 -22 14 -30 14 -8 0 -20 5 -26 11 -24 24 -40 1 -52 -78 -53
-346 -74 -437 -65 -273 5 82 32 279 50 361 5 22 -2 31 -53 70 -32 24 -64 50
-71 57 -18 16 -20 15 -18 -5 0 -10 12 -27 25 -39 24 -20 24 -21 8 -69 -10 -27
-17 -59 -17 -71 0 -13 -4 -25 -9 -29 -10 -6 -7 68 3 95 4 9 0 24 -8 35 -12 17
-14 15 -21 -33 -4 -29 -11 -54 -16 -58 -12 -7 -12 85 0 156 5 30 12 111 15
180 l5 125 -28 -135 c-43 -201 -82 -408 -102 -535 -6 -38 -13 -77 -15 -85 -10
-29 -24 13 -24 72 0 65 7 88 26 88 11 0 14 19 14 83 1 45 7 109 15 141 15 62
33 336 21 325 -3 -3 -17 -82 -31 -175 -40 -272 -68 -411 -77 -379 -4 16 0 65
9 114 16 90 18 109 27 256 3 57 2 83 -4 70 -12 -27 -12 -12 0 60 5 33 16 110
25 170 8 61 19 139 25 175 15 90 21 180 11 155 -5 -11 -16 -54 -26 -95 -22
-99 -35 -130 -51 -130 -8 0 -14 -8 -14 -19 0 -10 -7 -24 -15 -31 -8 -7 -15
-20 -15 -30 0 -10 -7 -20 -15 -24 -8 -3 -26 -29 -39 -58 -13 -29 -46 -75 -72
-101 -48 -48 -61 -67 -87 -120 -7 -15 -16 -24 -20 -20 -4 3 -7 -3 -7 -14 0
-20 -44 -66 -53 -56 -5 5 -52 -23 -52 -31 0 -2 8 -13 18 -24 18 -19 18 -20 -5
-36 -12 -9 -29 -16 -38 -16 -11 0 -12 -2 -2 -8 22 -14 4 -83 -31 -119 -17 -17
-35 -29 -39 -27 -4 3 -8 35 -8 72 0 56 9 101 41 221 7 24 -17 22 -44 -3 -14
-13 -31 -42 -37 -64 -6 -23 -16 -47 -24 -54 -7 -7 -18 -24 -25 -36 -16 -30
-69 -62 -103 -62 -35 0 -37 26 -4 41 42 19 47 49 41 213 -5 142 -12 200 -35
304 -8 34 -6 61 10 130 12 48 22 95 24 104 2 10 -4 28 -15 42 -10 13 -16 26
-13 29 10 9 -7 47 -20 47 -40 0 -55 -95 -31 -195 19 -82 29 -203 20 -263 -5
-36 -15 -58 -36 -80 -40 -40 -158 -86 -207 -80 -20 3 -47 2 -58 -3 -30 -11
-121 12 -179 44 -26 15 -56 27 -66 27 -10 0 -49 11 -87 25 -38 14 -77 25 -86
25 -9 0 -16 8 -16 19 0 11 -3 26 -6 34 -5 15 15 41 38 50 7 2 10 7 7 11 -4 4
-23 -7 -43 -24 -30 -27 -34 -36 -29 -63 3 -18 18 -49 34 -69 16 -20 29 -44 29
-52 0 -9 8 -16 18 -16 20 -1 56 -46 47 -60 -3 -6 3 -10 15 -10 23 0 159 -105
228 -177 23 -24 42 -45 42 -46 0 -7 -136 0 -147 6 -7 4 -40 2 -75 -4 -35 -6
-74 -11 -88 -11 -14 1 -54 1 -90 0 -161 -2 -187 -1 -225 11 -74 23 -85 24 -85
9 0 -21 33 -45 87 -63 26 -9 62 -25 78 -35 28 -17 55 -19 300 -20 324 0 410
-4 450 -18 17 -6 44 -14 60 -18 l30 -6 -30 -24 c-26 -21 -59 -35 -42 -18 3 4
2 15 -4 25 -7 14 -17 17 -42 12 -43 -8 -65 -29 -77 -75 -8 -27 -16 -38 -30
-38 -10 0 -20 -4 -22 -9 -1 -4 -44 -15 -95 -23 -81 -14 -101 -14 -170 -1 -43
8 -85 20 -93 27 -8 7 -41 25 -74 40 -69 33 -156 87 -176 111 -18 21 -70 48
-70 36 0 -5 29 -36 64 -68 60 -55 63 -60 45 -71 -10 -7 -28 -12 -40 -12 -28 0
-137 68 -144 89 -3 10 -7 48 -10 87 -3 38 -9 80 -14 94 -17 50 -33 131 -36
188 -1 33 -7 68 -13 78 -5 10 -13 45 -17 77 -4 31 -12 57 -17 57 -6 0 -7 -58
-4 -149 6 -148 12 -193 25 -172 4 6 13 -17 20 -52 7 -34 18 -78 25 -97 7 -19
13 -61 15 -94 1 -32 9 -69 17 -82 9 -13 16 -44 16 -69 1 -25 5 -48 10 -51 4
-3 8 8 8 25 0 16 3 37 7 47 4 12 3 15 -5 10 -7 -4 -12 -1 -12 7 0 24 13 28 32
10 20 -18 24 -49 6 -55 -7 -3 9 -10 35 -17 26 -8 47 -18 47 -22 0 -5 7 -9 16
-9 20 0 95 -33 204 -89 47 -24 118 -61 158 -82 41 -21 79 -42 85 -47 7 -6 31
-16 55 -23 51 -15 39 -28 -33 -33 -36 -3 -45 0 -41 10 3 8 0 14 -7 14 -18 0
-39 -16 -35 -26 1 -5 -12 -10 -29 -12 -21 -2 -33 -9 -33 -18 0 -8 -13 -17 -30
-20 -16 -4 -35 -13 -41 -20 -13 -15 -89 -19 -89 -5 0 5 -26 11 -57 14 -74 6
-143 25 -168 47 -11 10 -29 20 -40 22 -11 2 -24 12 -30 24 -5 11 -24 38 -42
60 -24 31 -29 44 -21 52 9 9 7 17 -6 31 -12 13 -17 30 -14 45 6 31 -10 136
-23 152 -5 6 -8 22 -7 35 2 15 -2 23 -9 22 -8 -2 -13 7 -13 21 0 14 -4 28 -10
31 -5 3 -10 15 -10 26 0 10 5 19 10 19 6 0 10 -10 10 -22 1 -26 22 -58 39 -58
14 0 14 6 -3 93 -8 40 -16 86 -18 102 -5 50 -23 24 -24 -35 -3 -75 -3 -75 -15
-63 -6 6 -14 44 -18 84 -7 72 -8 73 -18 39 -8 -27 -10 7 -11 158 0 107 -3 196
-6 200 -4 3 -15 -3 -26 -14 -23 -23 -30 -99 -17 -178 7 -37 6 -46 -4 -41 -9 6
-10 1 -5 -21 4 -16 8 -42 9 -59 1 -16 9 -33 17 -37 10 -4 6 -7 -12 -7 -26 -1
-27 1 -24 40 3 29 1 39 -8 36 -9 -4 -11 24 -10 112 2 131 -4 211 -17 211 -5 0
-9 -62 -9 -137 l-1 -138 -18 35 c-12 23 -21 70 -26 134 -4 54 -10 120 -14 145
l-8 46 -8 -60 c-6 -45 -10 -55 -16 -40 -16 40 4 -82 28 -175 38 -143 40 -154
73 -310 32 -153 47 -220 80 -362 22 -98 25 -122 10 -113 -11 7 -14 -12 -11
-62 3 -46 -26 -46 -33 0 -9 58 -19 180 -22 271 -3 102 -14 130 -14 37 0 -46
-3 -62 -12 -59 -16 6 -26 38 -33 111 l-6 57 -42 -6 c-45 -7 -79 -30 -62 -42
17 -12 45 -81 45 -112 0 -41 -24 -29 -38 18 -6 21 -17 45 -24 55 -13 17 -15
17 -36 -7 -12 -15 -18 -26 -13 -26 5 0 12 -12 16 -27 3 -16 19 -55 35 -88 65
-133 95 -305 54 -305 -16 0 -54 70 -54 100 0 11 -4 20 -10 20 -13 0 -13 2 4
-78 20 -93 26 -152 15 -152 -5 0 -10 8 -10 18 -4 37 -5 48 -11 62 -7 18 -35
125 -52 197 -6 28 -15 55 -19 59 -4 4 -7 15 -7 25 0 10 -11 38 -24 63 -13 25
-27 69 -31 98 -4 29 -9 56 -11 59 -8 14 -297 -49 -315 -69 -4 -4 -2 -55 3
-114 10 -106 10 -108 -15 -151 -25 -42 -26 -46 -12 -102 7 -32 11 -64 8 -71
-6 -16 27 -34 64 -35 84 -2 132 -53 99 -104 -11 -16 -12 -25 -5 -25 8 0 8 -4
2 -12 -6 -7 -27 -47 -48 -88 -21 -41 -54 -94 -72 -117 -18 -23 -33 -46 -33
-52 0 -15 27 -14 33 2 5 11 8 -3 12 -66 2 -31 -11 -24 -17 8 -2 11 -6 16 -9
10 -3 -5 -2 -25 3 -43 7 -27 13 -32 26 -27 40 17 56 11 59 -22 2 -27 -1 -33
-17 -33 -11 0 -20 7 -20 15 0 13 -3 14 -14 3 -13 -11 -13 -15 1 -25 11 -9 16
-32 18 -80 1 -37 7 -80 13 -95 10 -24 17 -28 53 -28 l41 0 -30 -25 c-17 -14
-33 -25 -38 -25 -4 0 -15 -6 -23 -14 -9 -8 -29 -17 -46 -21 -26 -5 -27 -5 -11
6 15 9 16 13 5 20 -8 5 -16 3 -21 -4 -5 -8 -13 -8 -31 2 -13 7 -41 11 -62 9
l-37 -3 -18 65 c-9 36 -27 87 -39 113 -26 60 -26 65 -1 42 21 -19 100 -130
100 -140 0 -3 15 -22 34 -41 30 -31 35 -33 47 -18 7 9 14 23 16 32 1 9 7 18
12 20 15 5 14 42 0 42 -6 0 -8 -7 -5 -16 4 -10 1 -14 -6 -12 -7 3 -15 20 -18
40 -3 24 -16 44 -38 63 -37 31 -64 82 -83 155 -7 27 -16 50 -21 50 -12 0 -9
-45 4 -58 9 -9 9 -12 -3 -12 -8 0 -25 20 -37 45 -12 25 -29 48 -38 52 -9 3
-31 -7 -54 -26 l-39 -31 -75 22 c-68 20 -77 20 -93 6 -23 -19 -108 -48 -143
-48 -15 0 -47 14 -73 31 -26 17 -51 28 -57 24 -17 -10 -11 -49 10 -68 11 -9
20 -23 20 -32 0 -8 10 -20 22 -26 13 -7 31 -23 41 -36 10 -13 24 -29 30 -36
57 -59 138 -171 152 -212 10 -27 24 -55 32 -61 17 -15 17 -21 -3 -28 -20 -7
-78 11 -116 36 -14 10 -38 18 -52 18 -16 0 -41 16 -72 45 -41 40 -46 49 -40
78 7 39 -8 71 -24 47 -7 -11 -11 -4 -16 27 -3 23 -14 49 -23 58 -16 14 -17 13
-13 -15 7 -46 -4 -74 -48 -122 -22 -23 -40 -51 -40 -61 0 -9 -11 -23 -25 -29
-28 -13 -32 -39 -9 -62 9 -9 13 -24 9 -35 -21 -69 -8 -326 19 -343 6 -4 9 -24
8 -45 -2 -36 -2 -37 13 -19 8 11 15 29 15 40 0 29 15 50 30 41 7 -4 10 -25 8
-53 -2 -26 2 -47 8 -49 13 -4 34 40 34 72 0 13 5 27 10 30 18 11 10 25 -15 25
-15 0 -25 6 -25 15 0 7 -6 18 -13 22 -8 4 -22 20 -32 35 -20 32 -4 38 29 13
21 -16 46 -20 46 -7 0 4 -22 22 -49 40 -48 32 -49 35 -53 90 -7 107 14 111 62
11 19 -39 47 -89 61 -111 32 -48 40 -35 33 49 -7 81 -28 150 -64 206 -30 48
-37 72 -22 81 12 7 114 -212 119 -259 4 -28 0 -54 -10 -74 -9 -17 -12 -31 -8
-31 4 0 13 -10 19 -22 8 -17 11 -19 11 -7 1 9 14 31 30 47 27 30 27 31 7 34
-22 3 -34 34 -18 50 6 6 21 2 41 -10 20 -12 42 -17 62 -14 31 4 31 5 11 16
-20 11 -21 13 -6 34 8 12 24 22 35 22 40 0 17 18 -31 25 -42 6 -55 13 -80 45
-52 66 -38 71 74 27 28 -10 67 -22 86 -27 19 -4 55 -15 80 -25 32 -12 61 -15
103 -11 37 4 57 2 57 -5 0 -6 -9 -13 -19 -16 -11 -3 -22 -11 -25 -19 -3 -7
-12 -11 -20 -8 -42 16 -153 -55 -140 -89 3 -10 -2 -18 -15 -22 -26 -8 -28 -25
-3 -25 9 0 -10 -11 -42 -25 -33 -13 -63 -30 -67 -37 -12 -18 -11 -58 0 -58 5
0 7 -9 4 -20 -3 -11 0 -27 6 -34 10 -12 8 -17 -8 -26 -34 -17 -25 -33 14 -27
39 6 46 1 34 -28 -4 -11 -8 -14 -8 -7 -1 6 -6 12 -12 12 -6 0 -9 -15 -7 -36 2
-28 9 -39 26 -45 21 -8 23 -6 17 14 -5 19 -4 20 7 7 8 -8 20 -20 28 -27 11
-10 9 -14 -13 -22 -28 -11 -37 -31 -14 -31 7 0 41 9 76 21 34 12 65 19 68 16
9 -10 -8 -27 -27 -27 -11 0 -43 -14 -71 -31 l-53 -31 -18 24 c-9 13 -18 19
-18 14 0 -5 43 -50 95 -101 66 -63 94 -96 90 -107 -3 -8 -49 -36 -100 -62 -83
-41 -103 -47 -167 -48 -86 -3 -113 7 -77 29 24 14 23 14 -8 9 -20 -3 -33 -1
-33 5 0 6 -20 9 -50 8 -27 -2 -52 0 -55 3 -4 3 3 23 14 44 26 49 27 80 1 94
-11 6 -20 20 -20 31 0 15 -5 19 -17 15 -10 -3 -34 -8 -53 -11 -19 -3 -46 -13
-59 -22 -17 -11 -21 -12 -16 -2 5 8 -1 5 -13 -5 -21 -18 -28 -18 -129 -7 -60
7 -121 17 -137 22 -32 10 -106 -5 -106 -21 0 -6 -9 -10 -20 -10 -12 0 -32 -11
-46 -25 -30 -30 -89 -33 -204 -9 -81 16 -180 68 -180 94 0 13 -2 13 -9 1 -7
-11 -13 -12 -23 -4 -7 6 -60 29 -118 53 -152 62 -208 103 -242 181 -17 40 -31
54 -101 97 -95 58 -167 119 -196 165 -29 47 -60 175 -71 291 -12 119 -17 152
-30 186 -35 92 -52 212 -57 402 -5 186 -5 198 16 240 28 58 60 80 161 112 122
38 294 126 298 152 2 11 -16 81 -38 155 -35 115 -43 154 -51 275 -10 158 -3
194 47 233 62 49 114 40 195 -35 32 -30 63 -54 67 -54 27 0 157 -114 208 -182
32 -43 64 -78 71 -78 7 0 18 18 24 40 10 33 9 54 -5 123 -22 102 -34 151 -53
202 l-14 40 25 -30 c23 -27 25 -28 26 -9 0 12 -7 41 -15 64 -8 23 -15 50 -15
58 0 20 89 -127 90 -148 0 -8 18 -46 40 -85 57 -102 137 -261 146 -287 4 -13
22 -45 40 -73 19 -27 34 -55 34 -62 0 -17 193 -11 215 7 13 11 13 14 1 24 -20
15 -31 82 -15 91 8 5 10 4 5 -3 -8 -14 22 -62 39 -62 7 0 12 -8 11 -17 -1 -22
35 -29 72 -15 15 6 44 13 64 17 21 3 52 18 69 33 30 24 39 26 126 27 91 0 94
1 88 22 -3 12 -19 44 -36 71 -44 71 -136 291 -154 368 -8 36 -24 93 -35 127
-30 90 -45 186 -31 200 13 13 47 -14 57 -46 3 -11 26 -46 50 -77 24 -32 44
-61 44 -65 0 -4 14 -20 31 -38 17 -17 42 -48 56 -70 13 -21 26 -37 29 -35 7 7
-46 100 -64 115 -16 12 -16 14 3 29 11 8 32 18 47 21 36 7 55 30 40 45 -9 9
-15 7 -25 -6 -18 -25 -36 -17 -53 22 -11 27 -11 32 0 32 8 0 16 -9 19 -20 5
-20 27 -28 27 -10 0 6 -6 10 -12 10 -9 0 -8 3 2 10 12 7 12 12 2 22 -17 17
-15 58 3 58 8 0 15 5 15 10 0 16 -39 90 -48 90 -11 0 -32 -51 -32 -77 0 -25
-10 -29 -28 -11 -9 9 -12 7 -12 -9 0 -12 4 -24 9 -27 5 -3 11 -17 13 -31 8
-40 -16 -30 -40 17 -17 34 -19 45 -9 57 10 12 9 13 -2 6 -11 -6 -13 -4 -8 8 4
10 10 24 13 32 4 9 3 15 -2 14 -26 -6 -44 15 -44 52 0 21 -4 39 -8 39 -10 0
-8 -62 2 -79 10 -16 -1 -44 -14 -36 -5 3 -10 17 -10 30 0 13 -4 27 -10 30 -5
3 -10 15 -10 26 0 11 -9 40 -20 64 -19 41 -22 44 -50 38 -78 -15 2 30 143 81
106 38 218 69 225 61 3 -2 -1 -7 -9 -9 -54 -17 -110 -40 -115 -47 -9 -16 66
-9 92 7 13 9 28 14 32 10 3 -4 0 -11 -8 -16 -8 -5 -14 -28 -15 -60 -1 -28 -7
-56 -14 -63 -6 -6 -11 -24 -11 -39 0 -17 -5 -28 -12 -27 -27 3 -48 -1 -48 -11
0 -5 9 -10 19 -10 11 0 23 -4 26 -10 3 -5 24 -14 46 -20 22 -6 37 -15 34 -20
-3 -5 5 -12 17 -16 13 -3 39 -23 58 -43 19 -20 64 -63 100 -97 76 -70 190
-194 190 -206 0 -4 5 -8 11 -8 7 0 9 9 5 23 -9 28 -14 50 -15 60 -1 4 -8 7
-16 7 -18 0 -20 37 -3 42 10 4 9 14 0 46 -7 24 -10 48 -6 54 4 6 3 8 -3 5 -6
-4 -15 -1 -21 6 -8 9 4 19 46 38 32 15 65 30 75 33 9 3 17 14 17 25 0 24 19
32 42 17 15 -9 15 -12 0 -35 -15 -22 -16 -44 -11 -151 3 -69 6 -117 7 -107 17
162 25 220 37 258 l13 47 -38 6 c-29 4 -51 0 -92 -19 -70 -33 -82 -32 -73 2
12 48 5 196 -13 282 -17 84 -37 113 -45 69 -3 -20 -5 -19 -12 10 l-8 33 -51
-5 -51 -6 60 20 60 20 -74 -4 c-92 -6 -86 3 11 15 238 30 466 38 553 19 28 -6
79 -15 115 -20 42 -5 69 -15 77 -26 11 -16 13 -12 14 27 0 24 4 94 9 154 5 66
5 114 -1 119 -5 6 -9 0 -9 -17 0 -15 -8 -58 -19 -95 -10 -37 -16 -73 -14 -80
5 -14 -16 -72 -26 -72 -3 0 -35 10 -71 21 -53 17 -93 21 -220 23 -85 0 -192
-3 -237 -7 l-83 -8 -1 33 c0 31 -1 31 -10 10 -5 -13 -7 -28 -3 -33 3 -5 -4 -9
-15 -9 -17 0 -21 6 -21 35 0 19 -5 35 -11 35 -7 0 -10 -14 -7 -35 4 -34 3 -35
-29 -35 -26 0 -36 5 -42 23 -10 26 -4 126 9 142 4 6 11 24 14 42 4 17 14 37
22 43 8 8 12 21 8 35 -3 13 1 36 9 51 8 16 12 35 10 41 -3 7 5 25 16 39 12 15
21 22 21 16 0 -6 -4 -14 -10 -17 -14 -9 -12 -47 5 -68 15 -21 12 -35 -22 -89
-27 -44 -28 -49 -8 -42 25 10 73 108 67 137 -3 9 11 26 60 78 25 26 35 45 31
56 -5 12 -2 15 9 11 12 -5 17 8 26 60 6 37 14 79 18 95 4 17 2 27 -5 27 -6 0
-11 -7 -11 -16 0 -23 -38 -125 -55 -148 -19 -25 -28 -16 -16 16 6 16 6 29 0
35 -6 6 -2 27 12 58 22 49 36 104 70 275 21 110 90 335 107 352 7 7 12 21 12
32 0 10 2 17 5 14 3 -3 3 -30 -1 -61 -5 -38 -10 -54 -19 -51 -8 3 -15 -8 -20
-33 -4 -20 -12 -49 -19 -63 -20 -38 -39 -151 -28 -162 6 -6 11 4 15 26 3 19
27 79 52 133 26 54 52 109 58 123 8 20 11 21 14 8 2 -9 -14 -71 -36 -139 -23
-67 -41 -129 -41 -138 -1 -9 -11 -38 -24 -66 -19 -39 -21 -51 -10 -53 8 -2 14
-13 14 -25 0 -18 2 -19 10 -7 5 8 10 26 10 38 0 13 6 38 13 55 8 18 21 57 29
87 45 157 70 244 97 335 17 55 44 145 60 200 16 55 30 94 30 87 1 -16 -33
-153 -65 -260 -34 -112 -27 -149 8 -46 41 122 80 292 83 364 1 36 10 92 19
125 10 33 24 83 32 110 8 28 13 64 10 80 -2 17 -1 24 1 17 3 -7 9 -10 14 -7 5
4 9 -9 10 -27 1 -31 1 -32 9 -8 12 36 12 62 0 55 -5 -3 -10 2 -9 12 1 26 27
91 28 71 1 -22 21 -24 21 -3 0 9 7 27 16 40 8 13 14 34 12 47 -3 19 -7 15 -18
-19 -13 -44 -37 -61 -27 -20 21 87 49 174 63 195 9 14 18 39 20 56 4 43 62
176 117 269 106 179 321 402 490 510 31 20 57 40 57 44 0 10 36 27 120 60 86
32 240 81 263 82 16 1 16 0 -2 -18z m49 -3 c-12 -5 -25 -6 -28 -3 -3 3 0 5 7
5 7 0 10 4 7 9 -4 5 4 7 16 3 l22 -5 -24 -9z m766 -43 c-21 -16 -32 -13 -21 4
3 6 14 11 23 11 15 -1 15 -2 -2 -15z m-1156 -20 c-7 -8 -18 -15 -24 -15 -6 0
-2 7 8 15 25 19 32 19 16 0z m-40 -19 c0 -2 -7 -7 -16 -10 -8 -3 -12 -2 -9 4
6 10 25 14 25 6z m-215 -25 c-30 -27 -108 -81 -112 -77 -7 7 67 70 91 78 30 9
31 9 21 -1z m133 -33 c-66 -48 -145 -117 -192 -168 -22 -24 -54 -56 -70 -70
-38 -34 -36 -31 -126 -149 -44 -58 -80 -108 -80 -113 0 -4 -5 -8 -11 -8 -15 0
17 50 89 140 58 73 73 100 55 100 -20 -1 -105 -97 -132 -148 -7 -13 -15 -21
-18 -19 -14 15 172 237 199 237 5 0 47 34 94 76 77 68 204 154 228 154 5 0
-11 -15 -36 -32z m1432 -52 c0 -3 -4 -8 -10 -11 -5 -3 -10 -1 -10 4 0 6 5 11
10 11 6 0 10 -2 10 -4z m-1730 -36 c0 -5 -4 -10 -9 -10 -6 0 -13 5 -16 10 -3
6 1 10 9 10 9 0 16 -4 16 -10z m1540 -11 c0 -5 -7 -9 -15 -9 -9 0 -12 6 -9 15
6 15 24 11 24 -6z m-1600 -48 c0 -5 -11 -16 -25 -25 -22 -15 -25 -15 -25 -1 0
12 21 28 48 34 1 1 2 -3 2 -8z m1867 -87 c-3 -3 -12 -4 -19 -1 -8 3 -5 6 6 6
11 1 17 -2 13 -5z m560 -138 c36 -39 69 -79 74 -90 5 -12 16 -31 25 -43 10
-14 12 -23 5 -23 -6 0 -11 5 -11 10 0 12 -136 168 -189 218 l-36 34 33 -19
c19 -10 63 -49 99 -87z m-118 -67 c24 -27 61 -69 84 -93 23 -24 56 -61 73 -83
41 -52 117 -208 111 -230 -3 -15 -6 -14 -15 7 -5 14 -22 40 -36 59 -14 19 -26
40 -26 46 0 15 -84 123 -150 194 -28 30 -50 64 -50 76 0 12 -13 31 -30 43 -16
13 -30 27 -30 32 0 18 28 -2 69 -51z m-1662 5 c-4 -4 -32 -17 -63 -30 -62 -25
-62 -16 1 15 38 19 75 28 62 15z m-827 -89 c0 -17 -27 -32 -37 -21 -4 3 2 13
13 21 24 18 24 18 24 0z m1125 -5 c-22 -4 -62 -11 -90 -14 l-50 -6 40 14 c22
8 63 14 90 14 l50 -1 -40 -7z m1402 -56 c19 -20 32 -38 29 -41 -7 -8 -32 14
-57 49 -28 39 -14 35 28 -8z m-440 20 c-3 -3 -12 -4 -19 -1 -8 3 -5 6 6 6 11
1 17 -2 13 -5z m428 -57 c11 -11 39 -33 63 -50 23 -17 42 -36 42 -42 0 -7 9
-20 19 -29 11 -10 36 -52 57 -94 21 -43 47 -93 59 -112 12 -19 30 -60 40 -90
10 -30 26 -76 36 -102 11 -26 19 -54 19 -63 0 -9 8 -19 19 -22 16 -4 20 -18
26 -101 4 -54 13 -131 21 -172 8 -41 14 -91 14 -111 0 -20 7 -49 15 -65 13
-26 14 -23 9 47 -3 40 -12 94 -19 119 -18 61 -23 179 -8 188 8 5 13 53 15 146
2 148 6 147 34 -9 20 -112 22 -391 6 -870 -12 -364 -15 -528 -10 -560 3 -18
-3 -20 -80 -23 l-84 -3 5 68 c2 37 12 155 22 262 12 137 14 203 7 225 -8 25
-10 12 -11 -74 -1 -58 -6 -123 -10 -145 -5 -22 -15 -67 -21 -100 -7 -33 -17
-64 -22 -70 -6 -6 -8 -1 -4 15 2 14 10 68 16 120 6 52 16 118 22 145 5 28 12
181 15 340 4 287 0 360 -33 571 -19 120 -17 124 12 30 13 -44 36 -159 50 -255
30 -206 32 -212 44 -191 8 14 -14 165 -56 390 -27 144 -93 335 -143 413 -30
47 -39 41 -13 -10 28 -55 65 -153 60 -159 -3 -2 -15 19 -28 48 -12 29 -36 72
-51 95 -16 23 -29 48 -29 57 0 8 -23 43 -51 76 -28 34 -48 64 -45 68 4 3 12 0
18 -6 7 -7 16 -12 21 -12 10 0 -20 43 -60 85 -15 17 -39 44 -53 60 l-25 30 25
-20 c13 -11 33 -28 45 -38z m-411 4 c3 -5 -1 -12 -10 -15 -25 -10 -34 -7 -34
9 0 16 35 21 44 6z m-2221 -88 c-17 -16 -36 -44 -43 -63 -14 -36 -47 -80 -62
-80 -5 0 -22 -15 -38 -32 -16 -18 -30 -27 -30 -20 0 19 43 92 55 92 19 0 57
32 47 39 -13 8 29 58 66 77 39 20 40 18 5 -13z m72 7 c-3 -5 -12 -10 -18 -10
-7 0 -6 4 3 10 19 12 23 12 15 0z m2575 -10 c0 -5 -2 -10 -4 -10 -3 0 -8 5
-11 10 -3 6 -1 10 4 10 6 0 11 -4 11 -10z m-889 -23 c-13 -13 -26 -3 -16 12 3
6 11 8 17 5 6 -4 6 -10 -1 -17z m-1861 -175 c0 -4 -7 -18 -16 -30 -11 -17 -19
-20 -33 -13 -14 8 -21 2 -40 -35 -33 -61 -38 -48 -7 15 17 33 31 49 40 45 8
-3 20 2 27 10 15 17 29 21 29 8z m81 -19 c-12 -20 -14 -14 -5 12 4 9 9 14 11
11 3 -2 0 -13 -6 -23z m-85 -90 c-13 -38 -39 -115 -57 -173 -32 -103 -51 -140
-73 -140 -7 0 -7 3 -1 8 17 12 34 75 28 103 -2 15 2 40 10 56 9 16 19 47 23
68 7 42 67 145 84 145 5 0 -1 -30 -14 -67z m914 59 c-1 -15 -37 -48 -75 -67
-22 -11 -48 -28 -58 -38 -10 -10 -37 -27 -60 -37 -56 -26 -142 -83 -172 -114
-60 -62 -95 -88 -95 -73 0 17 25 46 68 77 12 9 36 29 54 46 18 16 87 70 154
119 85 64 129 91 152 92 18 1 32 -1 32 -5z m-1089 -109 c-11 -21 -20 -35 -21
-31 0 12 33 78 38 74 2 -2 -6 -21 -17 -43z m3168 -51 c0 -24 -1 -25 -9 -7 -12
28 -12 47 0 40 6 -3 10 -18 9 -33z m-3017 -119 c-13 -24 -100 -300 -108 -340
-4 -19 -14 -33 -25 -36 -26 -7 -25 20 5 91 13 31 29 78 37 105 7 26 19 47 26
47 13 0 17 10 33 85 10 47 28 80 37 71 2 -2 0 -12 -5 -23z m-102 -110 c0 -4
-6 -25 -14 -48 -8 -22 -20 -59 -27 -83 -7 -23 -14 -40 -17 -38 -6 7 42 176 51
176 4 0 7 -3 7 -7z m-116 -153 c4 -31 3 -40 -4 -30 -5 8 -10 30 -10 49 0 45 6
37 14 -19z m207 -57 c-12 -20 -14 -14 -5 12 4 9 9 14 11 11 3 -2 0 -13 -6 -23z
m2876 -95 c-3 -8 -6 -5 -6 6 -1 11 2 17 5 13 3 -3 4 -12 1 -19z m-3007 -58
c-6 -12 -14 -19 -17 -17 -2 3 1 15 7 27 6 12 14 19 17 17 2 -3 -1 -15 -7 -27z
m9 -134 c-6 -21 -12 -36 -14 -34 -3 2 0 21 6 42 6 21 12 36 14 34 3 -2 0 -21
-6 -42z m675 -479 c50 -28 57 -47 19 -47 -46 0 -71 11 -77 33 -11 42 4 45 58
14z m2431 -227 c3 -5 1 -10 -4 -10 -6 0 -11 5 -11 10 0 6 2 10 4 10 3 0 8 -4
11 -10z m193 -117 c-10 -2 -26 -2 -35 0 -10 3 -2 5 17 5 19 0 27 -2 18 -5z
m397 -29 c66 -14 143 -30 170 -35 108 -21 278 -63 268 -66 -16 -6 -197 30
-337 67 -71 18 -169 35 -240 41 -187 15 -248 29 -101 23 72 -3 168 -15 240
-30z m-309 10 c31 -8 42 -63 47 -227 4 -116 2 -136 -9 -126 -8 6 -14 24 -14
39 0 34 -26 47 -40 20 -8 -15 -8 -20 2 -20 8 -1 5 -6 -6 -15 -17 -13 -17 -15
-3 -21 25 -9 20 -26 -5 -22 -13 2 -22 9 -20 16 1 6 -3 11 -10 10 -13 -3 -14 2
-16 77 -2 62 -20 49 -24 -18 -3 -41 -6 -47 -25 -47 -22 0 -53 24 -53 41 0 5 7
9 15 9 8 0 15 4 15 8 0 37 24 187 36 230 15 50 17 52 52 52 21 0 47 -3 58 -6z
m-3686 -14 c0 -13 -40 -53 -46 -47 -3 3 2 12 11 20 8 9 15 20 15 26 0 6 5 11
10 11 6 0 10 -4 10 -10z m935 -70 c3 -5 1 -10 -4 -10 -6 0 -11 5 -11 10 0 6 2
10 4 10 3 0 8 -4 11 -10z m1543 -37 c-10 -2 -26 -2 -35 0 -10 3 -2 5 17 5 19
0 27 -2 18 -5z m242 -82 c0 -5 -9 -11 -19 -14 -14 -3 -18 -1 -14 9 6 15 33 19
33 5z m-3283 -63 c-3 -8 -6 -5 -6 6 -1 11 2 17 5 13 3 -3 4 -12 1 -19z m3843
12 c0 -5 -4 -10 -10 -10 -5 0 -10 5 -10 10 0 6 5 10 10 10 6 0 10 -4 10 -10z
m320 -120 c27 -14 54 -100 31 -100 -5 0 -17 20 -27 45 -9 25 -21 45 -25 45 -5
0 -9 5 -9 10 0 13 6 13 30 0z m137 -17 c3 -7 -3 -9 -17 -6 -29 8 -37 25 -9 21
12 -1 24 -8 26 -15z m-50 -29 c-7 -7 -37 7 -37 17 0 6 9 5 21 -1 11 -7 19 -14
16 -16z m-4277 -116 c0 -51 -5 -47 -13 10 -3 24 -1 40 4 36 5 -3 9 -24 9 -46z
m377 -54 c-3 -3 -12 -4 -19 -1 -8 3 -5 6 6 6 11 1 17 -2 13 -5z m-297 -41
c-77 -36 -89 -41 -144 -51 -73 -15 -42 3 59 34 50 15 94 31 100 35 5 5 16 9
25 8 8 0 -10 -12 -40 -26z m440 -37 c0 -14 -4 -28 -10 -31 -6 -4 -10 7 -10 24
0 17 5 31 10 31 6 0 10 -11 10 -24z m7 -116 c2 -11 -2 -20 -7 -20 -6 0 -10 12
-10 27 0 29 12 24 17 -7z m4918 -112 c-8 -43 -21 -88 -30 -100 -8 -13 -15 -28
-15 -35 0 -22 -79 -93 -141 -129 -34 -19 -63 -34 -66 -34 -15 0 27 35 66 55
110 55 157 133 174 287 9 85 12 97 18 68 4 -19 1 -68 -6 -112z m-5588 63 c-8
-22 -8 -36 0 -53 6 -13 14 -36 18 -53 6 -28 5 -29 -9 -10 -27 39 -33 145 -7
145 5 0 5 -12 -2 -29z m4290 -123 c-3 -8 -6 -5 -6 6 -1 11 2 17 5 13 3 -3 4
-12 1 -19z m223 -40 c15 -5 24 -68 9 -68 -5 0 -9 5 -9 11 0 5 -5 7 -10 4 -6
-3 -13 2 -17 12 -4 10 -10 20 -14 23 -5 3 -6 16 -2 28 4 19 7 20 17 8 6 -7 18
-16 26 -18z m1098 -54 c29 -8 28 -22 -3 -30 -26 -7 -59 11 -49 27 6 10 20 11
52 3z m-1121 -36 c-3 -8 -6 -5 -6 6 -1 11 2 17 5 13 3 -3 4 -12 1 -19z m-5237
-1 c0 -2 -12 -14 -27 -28 l-28 -24 24 28 c23 25 31 32 31 24z m1365 -17 c-3
-5 -13 -10 -21 -10 -8 0 -12 5 -9 10 3 6 13 10 21 10 8 0 12 -4 9 -10z m4906
-33 c-8 -8 -11 -7 -11 4 0 9 3 19 7 23 4 4 9 2 11 -4 3 -7 -1 -17 -7 -23z m64
23 c3 -5 -1 -10 -10 -10 -9 0 -13 5 -10 10 3 6 8 10 10 10 2 0 7 -4 10 -10z
m-2 -37 c-30 -87 -63 -129 -63 -83 0 11 -7 23 -15 26 -8 4 -15 17 -15 30 0 20
5 24 29 24 17 0 33 5 36 10 11 18 35 11 28 -7z m-6349 -17 c-7 -18 -54 -50
-54 -37 0 8 47 51 56 51 2 0 1 -6 -2 -14z m6379 -41 c-3 -9 -8 -14 -10 -11 -3
3 -2 9 2 15 9 16 15 13 8 -4z m-5598 -75 c-27 -12 -43 -12 -25 0 8 5 22 9 30
9 10 0 8 -3 -5 -9z m5129 -11 c37 -29 48 -62 40 -121 -9 -67 -74 -141 -124
-141 -76 0 -93 106 -34 209 45 79 70 91 118 53z m386 17 c0 -3 -4 -8 -10 -11
-5 -3 -10 -1 -10 4 0 6 5 11 10 11 6 0 10 -2 10 -4z m-1587 -156 c-7 -28 -13
-25 -13 6 0 14 4 23 9 20 5 -3 7 -15 4 -26z m-19 -97 c-3 -32 -14 -112 -25
-178 -10 -66 -19 -132 -19 -147 0 -14 -7 -54 -16 -87 -8 -34 -12 -66 -9 -71 3
-6 1 -10 -4 -10 -6 0 -11 6 -11 13 0 13 22 169 39 282 6 39 16 104 22 145 6
41 13 83 15 93 10 34 14 16 8 -40z m141 -18 c-8 -33 -15 -73 -15 -90 0 -16 -7
-48 -15 -70 -14 -40 -14 -39 -9 35 5 68 18 152 30 189 3 9 8 11 14 5 6 -6 4
-32 -5 -69z m809 43 c3 -13 6 -32 6 -42 0 -29 -16 -7 -23 32 -7 36 7 44 17 10z
m-3178 -14 c-3 -9 -6 -23 -6 -32 0 -10 -3 -13 -10 -6 -11 11 -2 54 12 54 6 0
7 -7 4 -16z m2440 6 c25 -10 26 -12 11 -28 -15 -16 -15 -20 -1 -33 8 -9 12
-23 8 -32 -10 -26 -27 -20 -20 7 4 16 0 29 -14 41 -11 10 -20 26 -20 37 0 21
0 21 36 8z m78 -25 c6 -15 -13 -55 -25 -55 -13 0 -18 44 -7 57 14 17 25 16 32
-2z m112 -33 c-3 -5 7 -7 22 -5 15 3 35 -2 45 -9 18 -13 17 -18 -23 -93 -63
-121 -93 -165 -112 -165 -23 0 -23 25 1 58 10 15 18 34 18 42 1 8 4 23 8 33
16 37 -15 14 -49 -38 -39 -58 -52 -70 -60 -57 -3 5 15 43 39 85 25 42 45 81
45 88 0 23 35 69 53 69 10 0 16 -4 13 -8z m144 -41 c0 -5 -6 -16 -13 -23 -7
-7 -20 -26 -30 -41 -10 -16 -20 -27 -23 -25 -3 4 20 54 39 86 9 14 27 16 27 3z
m-693 -88 c-6 -29 -15 -53 -20 -53 -9 0 0 96 10 113 14 23 20 -14 10 -60z
m1071 40 c-2 -10 -10 -18 -18 -18 -8 0 -16 8 -18 18 -2 12 3 17 18 17 15 0 20
-5 18 -17z m-5078 -53 c0 -5 -7 -10 -15 -10 -8 0 -15 5 -15 10 0 6 7 10 15 10
8 0 15 -4 15 -10z m1747 -22 c-3 -7 -5 -2 -5 12 0 14 2 19 5 13 2 -7 2 -19 0
-25z m227 6 c3 -8 10 -13 15 -10 4 3 8 -31 8 -77 -1 -45 2 -100 6 -122 7 -37
6 -36 -12 12 -18 49 -25 82 -36 176 -4 37 8 51 19 21z m-488 -39 c-3 -8 -1
-28 5 -43 11 -30 49 -205 49 -229 0 -28 -19 -2 -26 35 -6 41 -30 137 -46 193
-11 37 -6 59 14 59 5 0 8 -7 4 -15z m2364 -65 c0 -78 -16 -96 -22 -25 -3 31
-3 68 0 82 8 41 22 5 22 -57z m1235 50 c3 -5 1 -10 -4 -10 -6 0 -11 5 -11 10
0 6 2 10 4 10 3 0 8 -4 11 -10z m-3665 -10 c0 -5 -2 -10 -4 -10 -3 0 -8 5 -11
10 -3 6 -1 10 4 10 6 0 11 -4 11 -10z m-1335 -20 c3 -5 2 -10 -4 -10 -5 0 -13
5 -16 10 -3 6 -2 10 4 10 5 0 13 -4 16 -10z m1349 -15 c4 -10 -1 -15 -14 -15
-20 0 -26 11 -13 23 10 11 20 8 27 -8z m2876 -70 c-22 -27 -31 -15 -13 18 13
25 18 28 21 14 2 -10 -2 -24 -8 -32z m-4440 15 c12 -8 11 -10 -7 -10 -13 0
-23 5 -23 10 0 13 11 13 30 0z m1558 -51 c-7 -44 -6 -64 2 -75 10 -11 9 -14
-3 -14 -13 0 -15 14 -15 75 1 51 5 75 13 75 9 0 9 -15 3 -61z m339 19 c-3 -7
-5 -2 -5 12 0 14 2 19 5 13 2 -7 2 -19 0 -25z m-380 0 c-3 -8 -6 -5 -6 6 -1
11 2 17 5 13 3 -3 4 -12 1 -19z m2512 -90 c-16 -124 -31 -156 -24 -53 6 83 22
161 32 152 3 -3 -1 -48 -8 -99z m-2526 42 c-8 -31 -23 -34 -23 -6 0 16 6 26
14 26 9 0 12 -7 9 -20z m3328 -7 c8 -16 18 -31 22 -34 5 -3 0 -21 -11 -39 -14
-23 -19 -43 -15 -66 5 -33 -12 -50 -22 -21 -8 23 -24 171 -19 179 10 16 31 7
45 -19z m744 5 c-4 -13 -12 -27 -18 -33 -7 -7 -8 -4 -3 8 3 10 6 25 6 33 0 8
5 14 11 14 6 0 8 -9 4 -22z m-4195 -8 c0 -5 -5 -10 -11 -10 -5 0 -7 5 -4 10 3
6 8 10 11 10 2 0 4 -4 4 -10z m2717 -112 c-2 -18 -4 -6 -4 27 0 33 2 48 4 33
2 -15 2 -42 0 -60z m433 69 c0 -7 -7 -22 -15 -33 -14 -18 -14 -18 -15 7 0 14
3 29 7 32 11 11 23 8 23 -6z m-2463 -49 c-3 -8 -6 -5 -6 6 -1 11 2 17 5 13 3
-3 4 -12 1 -19z m2332 -29 c-16 -45 -33 -63 -23 -24 8 36 24 68 30 62 2 -2 -1
-19 -7 -38z m-449 -4 c0 -18 -20 -129 -27 -145 -11 -29 -19 33 -11 85 5 27 9
55 10 61 2 14 28 14 28 -1z m1566 -31 c-3 -9 -6 -22 -6 -30 0 -9 -4 -13 -9
-10 -11 7 -2 56 11 56 6 0 7 -7 4 -16z m-3956 -43 c0 -5 3 -18 6 -28 5 -16 4
-16 -10 1 -18 23 -20 36 -6 36 6 0 10 -4 10 -9z m3927 -33 c-3 -8 -6 -5 -6 6
-1 11 2 17 5 13 3 -3 4 -12 1 -19z m-948 -83 c0 -22 -4 -58 -8 -80 -7 -32 -9
-19 -9 60 0 64 2 93 8 80 5 -11 9 -38 9 -60z m601 55 c0 -5 -7 -10 -15 -10 -8
0 -15 5 -15 10 0 6 7 10 15 10 8 0 15 -4 15 -10z m179 -50 c1 -13 0 -13 -9 0
-5 8 -9 24 -9 35 l0 20 9 -20 c5 -11 9 -27 9 -35z m86 -7 c-56 -100 -80 -132
-90 -121 -9 9 6 38 20 38 7 0 18 12 24 28 11 25 22 45 45 80 16 25 17 4 1 -25z
m-668 1 c-9 -9 -28 6 -21 18 4 6 10 6 17 -1 6 -6 8 -13 4 -17z m23 -24 c0 -5
-4 -10 -10 -10 -5 0 -10 5 -10 10 0 6 5 10 10 10 6 0 10 -4 10 -10z m564 -28
c-8 -30 -22 -19 -16 13 2 15 8 23 13 18 5 -5 6 -18 3 -31z m-354 4 c0 -8 -4
-18 -10 -21 -5 -3 -10 3 -10 14 0 12 5 21 10 21 6 0 10 -6 10 -14z m-260 -36
c0 -5 -4 -10 -10 -10 -5 0 -10 5 -10 10 0 6 5 10 10 10 6 0 10 -4 10 -10z m21
-33 c-8 -8 -11 -7 -11 4 0 20 13 34 18 19 3 -7 -1 -17 -7 -23z m-459 -64 c12
-24 4 -58 -12 -48 -5 3 -9 34 -9 68 1 34 4 49 6 32 2 -16 9 -40 15 -52z
m-2580 -5 c-9 -9 -12 -1 -11 33 l1 44 11 -33 c7 -24 7 -36 -1 -44z m3025 16
c4 -12 -23 -51 -30 -44 -9 9 5 61 16 57 6 -2 12 -8 14 -13z m-870 -46 c-3 -7
-5 -2 -5 12 0 14 2 19 5 13 2 -7 2 -19 0 -25z m77 -17 c3 -5 21 -6 39 -1 18 4
44 3 57 -2 l24 -9 -25 -13 c-14 -7 -42 -16 -61 -20 -43 -8 -73 -36 -39 -36 18
0 20 -3 11 -19 -13 -26 -13 -31 5 -31 8 0 15 -7 15 -15 0 -8 -6 -15 -13 -15
-42 0 -64 66 -44 133 12 37 21 45 31 28z m345 -41 c67 -18 99 -31 75 -30 -27
1 -195 48 -174 49 14 0 58 -8 99 -19z m-499 -42 c0 -16 -4 -28 -9 -28 -10 0
-21 61 -14 74 8 13 23 -16 23 -46z m360 45 c-8 -2 -22 -7 -30 -10 -11 -3 -9
-8 10 -18 24 -14 24 -14 3 -15 -12 0 -23 -4 -25 -9 -4 -11 -138 -25 -138 -14
0 4 22 22 48 39 37 25 58 32 97 32 28 0 43 -2 35 -5z m-362 -113 c-1 -35 -18
-41 -18 -7 0 21 7 37 16 37 1 0 2 -13 2 -30z m348 9 c27 -7 44 -17 44 -26 0
-12 -7 -13 -27 -8 -16 3 -29 11 -31 16 -2 5 -19 9 -37 9 -19 0 -37 5 -40 10
-8 13 35 13 91 -1z m341 -5 c-3 -3 -12 -4 -19 -1 -8 3 -5 6 6 6 11 1 17 -2 13
-5z m-559 -42 c-42 -11 -43 -13 -18 -33 23 -18 23 -20 4 -14 -17 4 -23 0 -28
-19 -10 -41 -46 -119 -52 -113 -3 3 -1 14 5 25 5 10 13 41 16 68 4 27 11 63
16 80 9 31 11 31 40 21 16 -7 24 -13 17 -15z m682 4 c8 -4 -1 -4 -20 -1 -19 3
-39 10 -44 15 -10 10 19 3 64 -14z m208 7 c2 -7 -3 -13 -12 -13 -9 0 -16 -2
-16 -4 0 -2 -3 -11 -6 -19 -4 -11 4 -17 26 -22 44 -10 31 -17 -16 -9 -37 6
-39 8 -41 46 -3 38 -2 39 29 36 17 -2 33 -9 36 -15z m740 -71 c3 -77 -12 -123
-35 -109 -19 12 9 187 31 187 1 0 2 -35 4 -78z m-1101 62 c-3 -3 -12 -4 -19
-1 -8 3 -5 6 6 6 11 1 17 -2 13 -5z m250 -63 c13 -8 -2 -10 -62 -5 -106 9
-133 24 -33 19 42 -2 85 -8 95 -14z m113 -41 c13 -9 13 -10 0 -9 -8 0 -24 4
-35 9 l-20 9 20 0 c11 0 27 -4 35 -9z m-25 -25 c37 -18 44 -25 27 -25 -23 0
-112 36 -112 45 0 12 39 2 85 -20z m-820 -82 c27 -10 16 -25 -12 -18 -36 9
-35 7 -27 51 l7 39 9 -33 c5 -18 15 -35 23 -39z m795 21 c0 -14 -5 -24 -11
-22 -6 2 -10 7 -10 11 1 4 1 14 1 22 0 8 5 15 10 15 6 0 10 -12 10 -26z m163
19 c-7 -2 -19 -2 -25 0 -7 3 -2 5 12 5 14 0 19 -2 13 -5z m-3693 -13 c0 -5 -2
-10 -4 -10 -3 0 -8 5 -11 10 -3 6 -1 10 4 10 6 0 11 -4 11 -10z m2581 -41 c-5
-13 -10 -19 -10 -12 -1 15 10 45 15 40 3 -2 0 -15 -5 -28z m947 -26 c15 -16
28 -22 41 -18 11 3 22 1 26 -5 3 -5 18 -7 32 -4 18 5 24 3 19 -5 -4 -6 -12
-11 -17 -11 -5 0 -22 -8 -36 -17 -15 -10 -39 -18 -52 -18 -34 0 -40 -32 -9
-45 20 -9 19 -10 -11 -5 -18 3 -50 5 -70 5 -33 1 -34 2 -18 14 22 17 6 31 -33
28 -15 -1 -35 5 -46 13 -18 15 -17 15 17 13 20 -1 47 5 60 13 22 15 22 17 6
33 -16 16 -17 16 -17 -3 0 -11 -4 -23 -10 -26 -6 -4 -9 10 -8 35 l1 40 51 -6
c36 -4 57 -13 74 -31z m478 23 c62 -13 134 -49 134 -67 0 -15 -21 -11 -105 22
-44 17 -96 37 -115 45 l-35 13 30 0 c17 0 58 -6 91 -13z m-3068 -28 c10 -10
15 -10 21 1 5 7 17 11 27 9 15 -3 20 -16 27 -72 4 -38 6 -70 5 -71 -2 -2 -18
-6 -36 -10 -31 -6 -33 -5 -30 17 2 15 10 23 23 23 31 0 28 29 -5 48 -41 24
-145 36 -138 16 2 -8 26 -18 51 -23 32 -7 47 -14 47 -25 0 -14 -14 -16 -85
-16 -47 0 -85 3 -85 6 0 4 7 12 15 19 38 31 13 35 -95 14 -33 -6 -34 -5 -18
12 11 11 37 19 73 22 31 3 73 13 93 23 43 21 93 24 110 7z m1772 -3 c37 -14
22 -19 -29 -9 -17 4 -31 10 -31 15 0 12 18 10 60 -6z m-38 -37 c-6 -7 -12 -26
-14 -43 l-4 -30 -8 27 c-5 18 -3 32 6 42 16 18 35 21 20 4z m1412 -61 c3 -16
4 -32 2 -35 -9 -9 -26 10 -26 29 0 12 -7 19 -20 19 -19 0 -27 19 -14 33 14 13
52 -17 58 -46z m-4744 14 c0 -6 -4 -13 -10 -16 -5 -3 -10 1 -10 9 0 9 5 16 10
16 6 0 10 -4 10 -9z m1257 3 c-3 -3 -12 -4 -19 -1 -8 3 -5 6 6 6 11 1 17 -2
13 -5z m2711 -9 c3 -3 1 -10 -5 -16 -8 -8 -22 -8 -50 1 -63 20 -65 33 -4 27
29 -4 56 -9 59 -12z m-2789 -10 c-9 -8 -183 -66 -224 -74 -59 -11 -72 -21 -51
-37 13 -9 25 -10 47 -2 17 6 33 8 36 4 4 -3 0 -6 -8 -6 -8 -1 -32 -9 -54 -20
-22 -11 -46 -19 -53 -20 -8 0 -12 -6 -10 -12 7 -20 53 -21 110 -4 69 20 74 13
6 -10 -41 -13 -48 -19 -33 -24 22 -8 13 -15 -34 -25 -23 -5 -36 -3 -41 5 -4 7
-13 9 -20 5 -9 -6 -9 -10 1 -17 11 -8 11 -9 -1 -5 -9 3 -24 -1 -35 -9 -26 -19
-34 -18 -28 5 3 11 16 22 29 25 16 4 24 14 24 27 0 19 -4 21 -30 15 -47 -9
-27 9 25 24 49 14 65 27 42 36 -13 5 -140 -23 -192 -42 -14 -5 -17 -4 -10 3 6
6 42 21 80 33 39 12 77 28 85 35 8 7 38 17 65 24 96 22 135 35 135 46 0 6 14
9 33 7 17 -2 43 1 57 7 26 10 57 14 49 6z m-189 -25 c0 -5 -10 -10 -22 -10
-19 0 -20 2 -8 10 19 13 30 13 30 0z m320 0 c-20 -13 -33 -13 -25 0 3 6 14 10
23 10 15 0 15 -2 2 -10z m235 -10 c3 -5 -7 -12 -22 -16 -15 -3 -44 -10 -63
-15 -19 -5 -43 -9 -53 -9 -32 0 -1 38 36 43 63 8 96 7 102 -3z m2208 -7 c-7
-3 -9 -11 -6 -19 6 -16 -19 -13 -87 12 l-35 13 46 -6 c28 -3 49 -1 53 5 4 6
14 8 23 5 10 -4 12 -8 6 -10z m-2370 0 c-7 -2 -19 -2 -25 0 -7 3 -2 5 12 5 14
0 19 -2 13 -5z m-148 -28 c-16 -8 -38 -14 -47 -15 -11 0 -18 -8 -18 -20 0 -21
-16 -26 -38 -11 -10 6 -7 12 12 24 14 10 33 17 43 17 10 0 25 5 33 10 8 5 22
9 30 9 8 0 2 -7 -15 -14z m456 3 c1 -2 4 -49 8 -105 5 -90 4 -103 -11 -112
-41 -25 -66 2 -33 35 23 23 18 59 -10 80 -14 10 -25 22 -25 27 0 4 11 12 25
17 18 7 25 17 25 35 0 14 5 25 10 25 6 0 10 -1 11 -2z m2284 -21 c6 0 18 4 27
8 21 8 37 -20 20 -37 -8 -8 -24 -5 -56 11 -48 22 -62 38 -23 25 12 -4 27 -7
32 -7z m179 -7 c5 -5 -11 -8 -40 -6 -61 4 -64 5 -39 16 22 10 64 4 79 -10z
m486 10 c0 -5 -4 -10 -10 -10 -5 0 -10 5 -10 10 0 6 5 10 10 10 6 0 10 -4 10
-10z m-225 -20 c3 -6 -1 -7 -9 -4 -18 7 -21 14 -7 14 6 0 13 -4 16 -10z
m-3315 -24 c0 -2 -7 -7 -16 -10 -8 -3 -12 -2 -9 4 6 10 25 14 25 6z m2967 -10
c-4 -10 4 -18 21 -25 l27 -9 -27 -1 c-39 -1 -58 9 -58 30 0 13 7 19 21 19 14
0 19 -5 16 -14z m-50 -12 c-3 -3 -12 -4 -19 -1 -8 3 -5 6 6 6 11 1 17 -2 13
-5z m698 -4 c8 -12 -3 -50 -15 -50 -4 0 -10 8 -14 18 -3 9 -9 23 -12 30 -7 15
32 17 41 2z m-440 -15 c22 -4 66 -16 97 -27 34 -12 69 -18 85 -15 17 4 61 -4
111 -20 74 -24 82 -29 66 -40 -25 -18 -40 -16 -75 9 -25 19 -33 20 -49 10 -20
-12 -83 -5 -75 9 8 13 -23 26 -129 52 -54 14 -101 28 -104 32 -4 4 2 5 13 2
11 -3 38 -9 60 -12z m-4240 -95 c3 -5 -1 -10 -9 -10 -9 0 -16 5 -16 10 0 6 4
10 9 10 6 0 13 -4 16 -10z m905 0 c0 -13 -34 -30 -57 -29 -17 1 -17 2 0 6 9 2
17 11 17 19 0 8 9 14 20 14 11 0 20 -4 20 -10z m-433 -6 c-3 -3 -12 -4 -19 -1
-8 3 -5 6 6 6 11 1 17 -2 13 -5z m263 -7 c0 -8 11 -20 25 -27 14 -7 25 -17 25
-22 0 -4 11 -30 24 -57 13 -27 26 -61 30 -75 4 -15 14 -26 29 -28 21 -3 22 -4
2 -15 -11 -6 -31 -13 -45 -14 -23 -4 -26 1 -39 53 -11 40 -22 60 -38 69 -16 9
-20 16 -13 23 17 17 11 29 -10 23 -15 -4 -20 0 -20 13 0 11 5 22 10 25 6 4 8
15 5 26 -4 11 -2 19 4 19 6 0 11 -6 11 -13z m950 -31 c0 -8 -14 -16 -37 -19
-56 -7 -64 5 -13 19 25 7 46 12 48 13 1 1 2 -5 2 -13z m-620 -20 c0 -15 -37
-32 -47 -22 -3 3 -3 12 0 21 8 19 47 20 47 1z m-596 -31 c-27 -19 -62 -41 -79
-47 -16 -6 -59 -26 -94 -45 -61 -32 -91 -40 -91 -27 0 10 30 32 83 59 26 14
47 29 47 33 0 4 15 6 34 4 19 -2 41 1 48 8 23 20 73 49 87 49 7 1 -9 -15 -35
-34z m494 14 c7 -11 10 -29 7 -40 -6 -17 -3 -19 27 -14 18 3 47 7 63 10 l30 4
-27 -11 c-16 -7 -28 -17 -28 -23 0 -17 -51 -42 -97 -48 -32 -4 -40 -2 -37 8 3
8 12 16 20 19 8 3 14 12 14 20 0 12 -7 14 -30 10 -38 -8 -42 18 -6 42 15 9 22
21 19 30 -8 22 30 17 45 -7z m-283 1 c3 -5 -1 -10 -10 -10 -9 0 -13 5 -10 10
3 6 8 10 10 10 2 0 7 -4 10 -10z m215 0 c0 -5 -9 -10 -21 -10 -11 0 -17 5 -14
10 3 6 13 10 21 10 8 0 14 -4 14 -10z m725 -31 c51 18 55 7 4 -13 -42 -17 -59
-12 -59 19 0 6 4 3 10 -5 8 -12 14 -12 45 -1z m-905 -24 c0 -8 -7 -15 -15 -15
-16 0 -20 12 -8 23 11 12 23 8 23 -8z m-144 -23 c-9 -9 -37 8 -31 18 5 8 11 7
21 -1 8 -6 12 -14 10 -17z m974 -1 c0 -5 -7 -11 -14 -14 -10 -4 -13 -1 -9 9 6
15 23 19 23 5z m-1059 -30 c-11 -7 -10 -11 5 -19 17 -9 16 -11 -9 -17 -15 -4
-30 -5 -33 -2 -10 10 17 47 34 47 13 0 14 -2 3 -9z m499 -41 c12 -8 11 -10 -7
-10 -13 0 -23 5 -23 10 0 13 11 13 30 0z m280 0 c-20 -13 -43 -13 -35 0 3 6
16 10 28 10 18 0 19 -2 7 -10z m-91 -4 c-8 -9 -93 -35 -98 -31 -8 9 9 18 46
25 50 10 57 11 52 6z m-109 -11 c0 -5 -75 -45 -85 -45 -15 0 -2 28 18 38 23
11 67 16 67 7z m-12 -59 c-14 -12 -41 -26 -59 -29 -19 -3 -49 -9 -68 -13 -25
-5 -32 -4 -27 4 4 7 16 12 27 12 10 0 19 5 19 10 0 6 15 10 33 10 17 0 41 7
51 15 33 25 52 18 24 -9z m-158 -21 c-14 -8 -34 -14 -45 -14 -15 0 -13 3 10
14 40 18 67 18 35 0z m-572 -38 c24 -68 8 -77 -31 -18 -27 40 -26 51 3 51 9 0
21 -14 28 -33z m739 -13 c-23 -12 -60 -24 -82 -27 -30 -5 -34 -4 -18 3 12 5
28 18 34 28 10 16 23 20 60 18 l48 -1 -42 -21z m588 -26 c7 -19 23 -242 19
-247 -3 -3 -14 5 -27 17 -18 19 -20 25 -10 41 10 16 9 29 -3 65 -17 49 -27 55
-61 31 -20 -14 -23 -13 -37 7 -24 34 -20 48 18 63 19 8 37 19 41 25 9 14 55
12 60 -2z m231 2 c21 0 17 -43 -8 -78 -93 -127 -112 -151 -116 -147 -5 5 27
179 40 214 7 20 13 22 39 17 18 -3 38 -6 45 -6z m-1473 -40 c31 0 38 -3 27
-10 -8 -5 -34 -10 -57 -10 -33 0 -43 4 -43 16 0 11 5 14 16 10 9 -3 34 -6 57
-6z m112 0 c-3 -5 -11 -10 -16 -10 -6 0 -7 5 -4 10 3 6 11 10 16 10 6 0 7 -4
4 -10z m205 -14 c0 -22 -9 -28 -70 -48 -77 -24 -110 -48 -110 -78 0 -28 -18
-34 -47 -14 -19 12 -54 18 -122 21 -52 2 -97 5 -99 7 -1 2 18 14 44 26 44 22
48 22 74 7 30 -18 127 -14 145 7 21 24 102 71 140 82 22 6 41 12 43 13 1 0 2
-10 2 -23z m1240 -57 c-18 -70 -38 -107 -92 -166 -45 -50 -57 -69 -83 -138
l-7 -20 -8 20 c-28 68 16 169 122 280 39 42 73 74 75 71 2 -2 -1 -24 -7 -47z
m-550 -94 c9 -44 22 -109 29 -145 7 -36 21 -79 32 -96 17 -28 17 -33 4 -44 -8
-7 -15 -28 -15 -48 0 -41 -24 -72 -55 -72 -21 0 -23 5 -30 127 -6 106 -23 211
-51 305 -6 19 34 60 55 56 9 -2 20 -31 31 -83z m2276 19 c-3 -9 -6 -19 -6 -23
0 -10 -35 -51 -43 -51 -10 0 37 89 47 90 4 0 5 -7 2 -16z m-2192 -82 c8 -15
30 -52 50 -82 20 -30 36 -58 36 -62 0 -5 11 -26 25 -47 26 -43 21 -58 -24 -63
-19 -3 -29 7 -53 55 -23 44 -68 192 -68 223 0 15 22 0 34 -24z m2120 -39 c-10
-16 -24 -40 -32 -55 -7 -15 -18 -30 -24 -34 -11 -7 3 21 39 79 13 20 26 37 29
37 4 0 -2 -12 -12 -27z m-2441 -96 c-1 -52 -8 -122 -16 -154 -8 -32 -18 -78
-22 -103 -9 -63 -25 -110 -37 -110 -5 0 -7 12 -3 30 8 37 15 195 14 308 0 73
2 85 23 107 13 14 28 23 33 21 6 -2 9 -42 8 -99z m92 -137 c15 -52 29 -102 32
-110 5 -20 -26 -49 -56 -52 -18 -2 -25 5 -36 37 -12 33 -13 56 -4 125 19 142
23 142 64 0z m1611 99 c24 -6 44 -17 44 -23 0 -24 -40 -54 -79 -61 -33 -5 -46
-2 -71 15 -49 35 -33 57 58 79 2 1 23 -4 48 -10z m130 -66 c48 -51 44 -109 -9
-142 -36 -22 -93 -27 -177 -16 -106 14 -134 3 -125 -49 5 -23 1 -37 -15 -54
-26 -27 -37 -25 -64 12 -30 39 -28 107 2 139 43 45 74 52 186 39 103 -11 131
-6 119 23 -5 16 33 75 48 75 6 0 21 -12 35 -27z m-552 -92 c10 -11 16 -28 14
-38 -5 -26 -56 -24 -75 3 -12 19 -12 24 2 38 22 21 38 20 59 -3z m790 -11 c28
-10 35 -43 14 -57 -7 -4 -29 -28 -49 -53 -20 -25 -69 -78 -108 -119 -40 -41
-70 -80 -67 -87 2 -6 -6 -22 -20 -35 -21 -20 -26 -21 -38 -8 -8 8 -17 30 -21
50 -6 32 -2 41 36 85 23 27 48 53 55 57 8 4 14 13 14 20 0 7 14 26 31 42 17
17 45 49 62 73 31 43 47 49 91 32z m-1640 -56 c10 -25 8 -30 -21 -64 -23 -28
-25 -35 -14 -52 15 -24 7 -35 -14 -18 -21 18 -19 34 10 69 19 22 24 36 19 55
-7 28 10 36 20 10z m-2443 -29 c-48 -28 -55 -30 -45 -14 7 11 62 38 79 38 6 1
-10 -10 -34 -24z m2385 -2 c-10 -10 -19 5 -10 18 6 11 8 11 12 0 2 -7 1 -15
-2 -18z m654 -4 c0 -25 -17 -59 -30 -59 -13 0 -13 22 0 54 11 31 30 34 30 5z
m1205 9 c14 -6 25 -18 25 -27 0 -15 -93 -119 -131 -147 -8 -5 -41 -40 -74 -76
-43 -47 -71 -69 -99 -76 -38 -11 -96 -6 -96 8 0 11 48 60 58 60 12 0 41 28
157 158 55 62 108 112 117 112 9 0 29 -5 43 -12z m-1938 -26 c-10 -10 -13 -22
-8 -28 13 -14 30 -93 21 -99 -4 -2 -13 20 -20 50 -10 42 -18 55 -34 57 -19 3
-18 5 9 20 39 23 52 22 32 0z m747 -66 c-32 -35 -65 -64 -71 -65 -29 -2 -9 34
47 92 46 46 63 58 72 49 9 -9 -3 -27 -48 -76z m-2987 48 c-30 -9 -64 -31 -92
-59 -25 -24 -45 -40 -45 -35 0 27 122 110 159 109 19 0 13 -5 -22 -15z m3093
-9 c0 -16 -67 -125 -85 -137 -25 -18 -25 15 0 59 45 78 85 115 85 78z m548
-11 c28 -19 28 -40 0 -58 -46 -29 -155 -29 -165 1 -7 20 34 56 73 63 60 12 68
11 92 -6z m-1238 -14 c0 -5 -5 -10 -11 -10 -5 0 -7 5 -4 10 3 6 8 10 11 10 2
0 4 -4 4 -10z m760 -18 c0 -5 -10 -14 -23 -19 -13 -6 -34 -34 -47 -62 -14 -28
-29 -50 -35 -48 -21 7 -15 40 15 87 26 41 37 50 61 50 16 0 29 -4 29 -8z m30
-28 c0 -20 -78 -129 -92 -129 -25 0 -16 25 27 84 47 62 65 74 65 45z m-1151
-35 c6 -18 11 -33 11 -33 0 -1 -9 -2 -19 -2 -15 0 -17 4 -10 13 17 20 0 35
-34 28 l-32 -6 25 15 c37 22 47 20 59 -15z m-2252 -21 c-3 -7 -5 -2 -5 12 0
14 2 19 5 13 2 -7 2 -19 0 -25z m203 11 c-30 -4 -59 -5 -65 -1 -16 10 33 18
79 13 l41 -5 -55 -7z m16 -46 c-7 -7 -26 7 -26 19 0 6 6 6 15 -2 9 -7 13 -15
11 -17z m3204 6 c0 -11 -27 -12 -34 0 -3 4 -3 11 0 14 8 8 34 -3 34 -14z m100
11 c0 -5 7 -10 15 -10 8 0 15 -9 15 -20 0 -11 -5 -20 -11 -20 -6 0 -13 9 -16
20 -3 11 -9 20 -14 20 -16 0 -24 -26 -24 -77 0 -70 -13 -81 -59 -51 -20 12
-36 28 -36 35 0 21 19 24 45 7 l25 -16 -6 46 c-5 30 -2 51 6 61 14 17 60 21
60 5z m100 -72 c0 -7 -16 -24 -35 -38 -35 -26 -63 -66 -53 -76 10 -9 41 15 73
57 33 42 43 47 51 24 15 -38 -97 -132 -121 -101 -5 7 -18 15 -27 19 -24 9 -23
17 7 57 39 53 105 90 105 58z m140 -113 c0 -8 -6 -15 -14 -15 -8 0 -35 -21
-61 -46 -31 -29 -51 -42 -57 -36 -14 14 3 42 47 81 38 33 85 42 85 16z m39
-27 c-1 -18 -106 -108 -124 -108 -26 0 -16 24 21 55 20 17 45 38 57 48 23 20
47 22 46 5z m-3666 -52 c33 -8 64 -19 70 -26 10 -10 6 -11 -18 -5 -16 4 -59
13 -94 21 -35 7 -66 16 -69 19 -10 10 53 5 111 -9z m3741 -4 c3 -5 -18 -21
-47 -36 -29 -15 -64 -35 -78 -43 -27 -17 -65 -11 -54 7 9 14 136 79 157 80 9
0 19 -4 22 -8z m28 -91 c-50 -44 -98 -81 -106 -81 -3 0 -6 8 -6 18 0 15 38 48
108 94 44 29 47 7 4 -31z m-3727 -6 c16 -8 -66 4 -107 15 -21 6 -38 15 -38 19
0 7 118 -21 145 -34z m3655 37 c0 -4 -16 -23 -35 -42 -25 -24 -38 -31 -46 -23
-7 7 1 20 28 42 38 31 53 38 53 23z m140 -32 c0 -24 -108 -110 -138 -110 -30
0 -27 11 11 38 17 12 50 36 72 52 43 32 55 36 55 20z m50 -50 c0 -6 -8 -14
-19 -18 -17 -7 -52 -32 -109 -79 -30 -26 -52 -30 -52 -10 0 12 51 54 120 100
27 19 60 22 60 7z m15 -29 c10 -17 -96 -111 -125 -111 -35 0 -30 18 12 43 24
14 54 37 67 51 26 28 36 32 46 17z m-3934 -19 c-7 -2 -18 1 -23 6 -8 8 -4 9
13 5 13 -4 18 -8 10 -11z m3992 -40 c-2 -6 4 -12 12 -12 19 0 19 -11 1 -36
-12 -15 -25 -19 -72 -17 -47 2 -60 -2 -71 -17 -17 -24 -33 -26 -33 -3 0 35 30
53 92 53 32 0 58 4 58 10 0 6 -9 10 -20 10 -20 0 -26 11 -13 24 11 11 48 2 46
-12z m-83 -112 c0 -12 -38 -23 -51 -14 -9 5 -7 11 5 20 18 13 46 9 46 -6z
m174 -2 c18 -25 21 -48 6 -48 -15 0 -61 50 -55 61 10 16 33 10 49 -13z m-57
-35 c4 -10 -86 -83 -101 -83 -16 0 -2 23 37 59 41 40 57 46 64 24z m92 -58
c-1 -5 -25 -20 -54 -31 -29 -12 -63 -32 -75 -44 -26 -26 -38 -19 -21 14 23 42
157 97 150 61z m31 -35 c0 -29 -100 -89 -147 -90 -43 0 -23 25 37 49 33 13 65
30 71 38 13 15 39 18 39 3z m1060 -79 l25 -7 -29 -16 c-18 -9 -25 -18 -17 -22
14 -9 15 -96 0 -96 -7 0 -9 -10 -5 -25 5 -18 2 -25 -9 -25 -8 0 -15 -4 -15
-10 0 -5 7 -10 15 -10 12 0 14 -10 10 -47 -8 -83 -8 -157 -1 -180 l7 -23 -203
0 c-115 0 -262 -6 -338 -15 -74 -8 -154 -15 -177 -15 -42 0 -43 1 -43 33 0 48
-37 233 -61 306 -16 48 -19 65 -9 71 7 4 60 13 119 19 156 17 353 41 461 56
104 14 231 17 270 6z m110 -796 c16 -37 33 -108 66 -280 11 -58 11 -60 -9 -57
-23 4 -47 -15 -47 -38 0 -20 26 -34 35 -20 4 6 1 10 -4 10 -6 0 -11 7 -11 15
0 9 9 15 25 15 18 0 25 -5 25 -19 0 -11 -4 -23 -10 -26 -18 -11 -11 -35 10
-35 11 0 20 -4 20 -10 0 -5 -20 -10 -45 -10 -36 0 -45 3 -45 18 0 9 -11 22
-25 29 -30 14 -31 9 -5 -17 28 -28 16 -43 -32 -37 -21 3 -53 1 -71 -3 -18 -5
-131 -11 -252 -15 -121 -3 -269 -9 -330 -12 -60 -3 -132 -6 -160 -7 -58 -1
-54 -23 -36 199 6 77 11 179 11 227 l0 86 63 7 c129 16 280 22 540 23 l268 1
19 -44z"/>
<path d="M5445 9710 c-19 -8 -19 -9 3 -9 12 -1 22 4 22 9 0 6 -1 10 -2 9 -2 0
-12 -4 -23 -9z"/>
<path d="M5081 9611 c-14 -4 -26 -12 -29 -20 -3 -9 4 -9 27 3 17 9 31 19 31
21 0 3 -1 5 -2 4 -2 -1 -14 -4 -27 -8z"/>
<path d="M5638 9503 c7 -3 16 -2 19 1 4 3 -2 6 -13 5 -11 0 -14 -3 -6 -6z"/>
<path d="M4997 9034 c-32 -17 -194 -171 -187 -178 7 -7 110 74 176 138 58 57
61 67 11 40z"/>
<path d="M6240 9031 c-5 -11 -10 -26 -9 -33 0 -7 4 -3 9 10 5 12 16 22 25 22
8 0 15 5 15 10 0 18 -29 11 -40 -9z"/>
<path d="M4995 8926 c-41 -39 -46 -55 -9 -31 28 18 64 52 64 60 0 14 -25 1
-55 -29z"/>
<path d="M6493 8953 c9 -2 23 -2 30 0 6 3 -1 5 -18 5 -16 0 -22 -2 -12 -5z"/>
<path d="M6550 8940 c0 -5 7 -10 16 -10 8 0 12 5 9 10 -3 6 -10 10 -16 10 -5
0 -9 -4 -9 -10z"/>
<path d="M4446 8815 c-9 -21 -15 -47 -15 -59 1 -20 2 -20 6 -1 3 11 12 35 20
53 9 18 13 35 10 38 -3 4 -13 -11 -21 -31z"/>
<path d="M4799 8803 c-13 -16 -12 -17 4 -4 16 13 21 21 13 21 -2 0 -10 -8 -17
-17z"/>
<path d="M6840 8810 c0 -5 5 -10 11 -10 5 0 7 5 4 10 -3 6 -8 10 -11 10 -2 0
-4 -4 -4 -10z"/>
<path d="M4741 8709 c-7 -12 -10 -23 -8 -26 3 -3 11 5 17 17 15 28 8 35 -9 9z"/>
<path d="M4331 8414 c-15 -61 -8 -68 9 -9 7 25 10 48 8 51 -3 2 -11 -16 -17
-42z"/>
<path d="M4429 8404 c-5 -15 -7 -29 -5 -32 5 -4 10 6 22 46 7 23 -7 12 -17
-14z"/>
<path d="M4297 8304 c-4 -4 -7 -14 -7 -23 0 -11 3 -12 11 -4 6 6 10 16 7 23
-2 6 -7 8 -11 4z"/>
<path d="M4870 8275 c-11 -13 -10 -14 4 -9 9 3 16 10 16 15 0 13 -6 11 -20 -6z"/>
<path d="M6880 8241 c0 -11 5 -23 10 -26 6 -3 10 1 10 9 0 9 0 19 1 23 0 4 -4
9 -10 11 -6 2 -11 -5 -11 -17z"/>
<path d="M4281 8234 c0 -11 3 -14 6 -6 3 7 2 16 -1 19 -3 4 -6 -2 -5 -13z"/>
<path d="M7045 7950 c3 -5 8 -10 11 -10 2 0 4 5 4 10 0 6 -5 10 -11 10 -5 0
-7 -4 -4 -10z"/>
<path d="M4601 7658 c1 -74 17 -92 18 -20 1 35 -3 62 -9 62 -5 0 -10 -19 -9
-42z"/>
<path d="M6522 7525 c-13 -29 1 -34 20 -7 7 11 20 21 28 25 9 3 5 6 -11 6 -18
1 -29 -6 -37 -24z"/>
<path d="M3940 7428 c0 -19 2 -20 10 -8 13 19 13 30 0 30 -5 0 -10 -10 -10
-22z"/>
<path d="M3924 7374 c-4 -10 -15 -39 -25 -63 -20 -46 -18 -65 4 -40 27 29 51
99 39 111 -8 8 -13 6 -18 -8z"/>
<path d="M4347 7353 c-3 -10 -10 -33 -15 -50 -6 -18 -7 -33 -3 -33 8 0 34 90
28 97 -3 2 -7 -4 -10 -14z"/>
<path d="M3952 7255 c0 -16 2 -22 5 -12 2 9 2 23 0 30 -3 6 -5 -1 -5 -18z"/>
<path d="M4217 7253 c-4 -3 -7 -11 -7 -17 0 -6 5 -5 12 2 6 6 9 14 7 17 -3 3
-9 2 -12 -2z"/>
<path d="M4371 7220 c-7 -25 -23 -79 -36 -120 -39 -123 -45 -152 -32 -147 6 2
15 19 20 38 5 19 17 61 27 94 30 100 42 153 37 167 -2 7 -10 -7 -16 -32z"/>
<path d="M4162 7116 c-23 -58 -44 -122 -48 -143 -4 -21 -13 -47 -20 -58 -17
-24 -18 -52 -3 -57 7 -2 9 -13 5 -26 -4 -12 -11 -20 -16 -17 -5 3 -6 13 -3 23
4 12 3 14 -6 6 -11 -10 -55 -170 -62 -224 -13 -97 72 100 126 295 32 114 76
298 72 302 -3 2 -23 -43 -45 -101z"/>
<path d="M4528 7175 c-4 -22 -7 -71 -7 -110 l1 -70 10 49 c5 27 8 76 6 110 -3
59 -3 60 -10 21z"/>
<path d="M3860 7171 c-7 -15 -7 -21 0 -21 12 0 25 28 17 36 -3 3 -10 -4 -17
-15z"/>
<path d="M4651 7120 c0 -14 4 -32 9 -40 8 -12 10 -12 9 5 0 11 -4 29 -9 40 -8
18 -9 18 -9 -5z"/>
<path d="M4251 7009 c-13 -39 -14 -49 -2 -49 9 0 25 69 18 77 -3 2 -10 -10
-16 -28z"/>
<path d="M4670 7004 c0 -14 4 -23 10 -19 6 3 10 15 10 26 0 10 -4 19 -10 19
-5 0 -10 -12 -10 -26z"/>
<path d="M3846 6973 c-25 -31 -30 -47 -34 -112 -4 -60 -10 -83 -29 -108 -14
-18 -22 -37 -18 -43 12 -20 45 37 60 102 7 35 23 92 34 127 11 36 19 66 18 68
-2 1 -16 -14 -31 -34z"/>
<path d="M5220 7006 c0 -2 7 -7 16 -10 8 -3 12 -2 9 4 -6 10 -25 14 -25 6z"/>
<path d="M4835 6970 c-3 -5 4 -12 15 -15 18 -6 19 -9 8 -22 -11 -14 -7 -15 32
-11 52 6 171 36 183 47 4 4 -46 8 -112 9 -66 0 -123 -3 -126 -8z m65 -20 c0
-5 -5 -10 -11 -10 -5 0 -7 5 -4 10 3 6 8 10 11 10 2 0 4 -4 4 -10z"/>
<path d="M7040 6960 c0 -5 5 -10 10 -10 6 0 10 5 10 10 0 6 -4 10 -10 10 -5 0
-10 -4 -10 -10z"/>
<path d="M4507 6898 c-8 -61 -9 -163 -3 -157 9 9 24 194 17 202 -5 4 -11 -16
-14 -45z"/>
<path d="M4636 6850 c13 -170 23 -214 19 -78 -2 70 -9 136 -14 145 -8 13 -9
-5 -5 -67z"/>
<path d="M4301 6904 c0 -11 3 -14 6 -6 3 7 2 16 -1 19 -3 4 -6 -2 -5 -13z"/>
<path d="M4675 6865 c3 -33 11 -64 16 -70 8 -7 9 6 4 45 -10 79 -28 101 -20
25z"/>
<path d="M4880 6870 c0 -13 11 -13 30 0 12 8 11 10 -7 10 -13 0 -23 -4 -23
-10z"/>
<path d="M4256 6799 c-3 -8 -14 -48 -25 -89 -10 -41 -22 -85 -26 -97 -5 -15
-3 -23 4 -23 6 0 11 9 11 20 0 11 4 20 9 20 9 0 44 170 36 178 -2 3 -7 -1 -9
-9z"/>
<path d="M6995 6768 c-10 -40 -23 -133 -20 -137 4 -3 27 75 39 132 8 32 -11
37 -19 5z"/>
<path d="M4725 6696 c-5 -43 -3 -100 4 -153 7 -46 10 -87 7 -92 -3 -4 -1 -21
4 -37 10 -36 11 276 1 321 -6 25 -9 19 -16 -39z"/>
<path d="M8090 6740 c0 -5 7 -10 15 -10 8 0 15 5 15 10 0 6 -7 10 -15 10 -8 0
-15 -4 -15 -10z"/>
<path d="M3665 6700 l-17 -35 22 23 c12 12 20 28 17 35 -2 7 -12 -4 -22 -23z"/>
<path d="M7769 6660 c-20 -10 -49 -36 -64 -57 -16 -21 -35 -42 -42 -46 -7 -4
-13 -13 -13 -18 0 -6 -12 -36 -26 -67 -35 -75 -48 -207 -27 -274 15 -46 26
-61 71 -96 35 -27 39 -95 12 -178 -12 -38 -24 -96 -26 -129 -3 -52 1 -76 24
-145 3 -8 10 19 16 60 13 83 25 111 58 134 22 16 22 16 -15 16 -50 0 -61 25
-24 55 20 15 24 24 16 32 -8 8 -8 17 1 33 9 17 17 20 38 15 22 -5 24 -4 13 9
-11 13 -11 20 3 41 9 14 23 25 30 25 8 0 16 7 20 15 3 8 14 15 24 15 29 0 72
24 67 38 -2 6 0 12 5 12 18 0 10 20 -7 21 -11 0 -13 3 -5 6 6 2 12 13 12 24 0
17 -8 19 -71 19 -60 0 -75 4 -104 26 -28 21 -35 34 -40 79 -5 36 -2 70 9 106
13 45 24 61 71 98 60 48 65 60 35 79 -16 10 -18 16 -10 38 6 14 10 27 10 30 0
9 -27 2 -61 -16z m25 -91 c-3 -5 -10 -7 -15 -3 -5 3 -7 10 -3 15 3 5 10 7 15
3 5 -3 7 -10 3 -15z m29 -413 c15 -19 27 -37 27 -40 0 -7 -61 -39 -65 -34 -1
2 -8 13 -14 26 -11 20 -10 27 4 42 15 17 15 19 -2 29 -17 10 -17 10 2 11 11 0
32 -15 48 -34z m-73 -102 c0 -2 -7 -4 -15 -4 -8 0 -15 4 -15 10 0 5 7 7 15 4
8 -4 15 -8 15 -10z"/>
<path d="M7858 6653 c-2 -9 14 -34 36 -55 36 -37 40 -53 13 -53 -21 0 -107
-37 -107 -46 0 -12 34 -6 52 8 7 6 30 14 50 18 36 7 56 29 38 40 -5 3 -7 12
-4 20 4 8 -1 18 -10 21 -21 8 -21 34 0 34 14 0 14 3 4 15 -17 21 -68 20 -72
-2z"/>
<path d="M4628 6548 c-1 -35 0 -92 3 -128 4 -51 6 -37 7 63 2 133 -4 172 -10
65z"/>
<path d="M8061 6528 c-10 -16 -8 -18 20 -16 39 3 43 10 15 24 -19 9 -25 7 -35
-8z"/>
<path d="M4234 6445 c3 -22 6 -55 6 -72 0 -18 5 -33 11 -33 15 0 4 120 -12
135 -9 7 -10 -1 -5 -30z"/>
<path d="M6065 6470 c3 -5 8 -10 11 -10 2 0 4 5 4 10 0 6 -5 10 -11 10 -5 0
-7 -4 -4 -10z"/>
<path d="M7763 6458 c-6 -7 -13 -20 -16 -29 -8 -23 26 -158 41 -168 7 -4 34
-4 60 0 26 4 54 9 62 10 8 1 -7 5 -35 8 -53 6 -55 10 -41 66 5 21 2 27 -18 35
-30 11 -44 53 -26 75 10 12 10 15 -3 15 -8 0 -19 -6 -24 -12z"/>
<path d="M4592 6430 c0 -14 2 -19 5 -12 2 6 2 18 0 25 -3 6 -5 1 -5 -13z"/>
<path d="M4703 6395 c0 -27 2 -38 4 -22 2 15 2 37 0 50 -2 12 -4 0 -4 -28z"/>
<path d="M7910 6429 c0 -5 5 -7 10 -4 6 3 10 8 10 11 0 2 -4 4 -10 4 -5 0 -10
-5 -10 -11z"/>
<path d="M7876 6403 c-11 -12 -6 -22 14 -28 11 -4 18 -10 15 -15 -3 -4 2 -13
10 -20 10 -9 15 -9 15 -1 0 6 -4 11 -9 11 -5 0 -7 9 -4 19 5 20 -28 47 -41 34z"/>
<path d="M6912 6330 c0 -14 2 -19 5 -12 2 6 2 18 0 25 -3 6 -5 1 -5 -13z"/>
<path d="M6992 6315 c0 -16 2 -22 5 -12 2 9 2 23 0 30 -3 6 -5 -1 -5 -18z"/>
<path d="M4587 6297 c-8 -32 -17 -126 -10 -102 21 74 29 116 23 120 -4 3 -10
-5 -13 -18z"/>
<path d="M4697 6293 c-10 -16 15 -203 26 -203 6 0 8 34 4 83 -5 86 -19 138
-30 120z"/>
<path d="M6890 6232 c-6 -40 -10 -75 -7 -78 7 -7 30 122 25 138 -3 7 -11 -20
-18 -60z"/>
<path d="M3130 6275 c7 -8 16 -12 21 -9 13 8 1 24 -18 24 -13 0 -13 -3 -3 -15z"/>
<path d="M3330 6279 c0 -5 5 -7 10 -4 6 3 10 8 10 11 0 2 -4 4 -10 4 -5 0 -10
-5 -10 -11z"/>
<path d="M6976 6244 c-4 -9 -4 -19 -1 -22 2 -3 7 3 11 12 4 9 4 19 1 22 -2 3
-7 -3 -11 -12z"/>
<path d="M3157 6239 c7 -7 15 -10 18 -7 3 3 -2 9 -12 12 -14 6 -15 5 -6 -5z"/>
<path d="M4137 6223 c-16 -8 -26 -17 -23 -20 3 -3 20 4 38 16 37 24 27 26 -15
4z"/>
<path d="M4217 6233 c-15 -23 -19 -101 -8 -119 12 -18 12 -17 8 3 -3 12 -1 41
4 64 10 44 8 71 -4 52z"/>
<path d="M6836 6192 c-4 -26 -11 -60 -16 -77 -4 -16 -11 -46 -14 -65 -8 -55
10 -5 24 65 7 33 16 72 20 87 5 15 5 30 1 33 -5 2 -12 -17 -15 -43z"/>
<path d="M9381 6210 c-30 -26 -25 -30 19 -21 79 16 142 -12 187 -85 11 -18 12
-17 12 7 1 30 -36 67 -92 92 -61 28 -99 29 -126 7z"/>
<path d="M4006 6174 c-5 -22 -15 -39 -29 -45 -18 -8 -16 -9 13 -4 44 7 49 13
43 53 -7 42 -19 41 -27 -4z"/>
<path d="M6961 6174 c0 -11 3 -14 6 -6 3 7 2 16 -1 19 -3 4 -6 -2 -5 -13z"/>
<path d="M9046 6108 c-9 -54 -1 -59 12 -8 5 22 6 42 2 45 -4 2 -10 -14 -14
-37z"/>
<path d="M4600 6121 c-12 -24 -13 -44 -1 -37 8 5 22 56 15 56 -2 0 -8 -9 -14
-19z"/>
<path d="M4853 6133 c-7 -3 -13 -16 -13 -30 0 -22 1 -23 16 -9 18 18 15 45 -3
39z"/>
<path d="M4681 6114 c0 -11 3 -14 6 -6 3 7 2 16 -1 19 -3 4 -6 -2 -5 -13z"/>
<path d="M3435 6034 c47 -87 128 -147 158 -118 9 9 -63 92 -99 113 -17 10 -43
26 -58 36 l-27 18 26 -49z"/>
<path d="M8055 6070 c3 -5 8 -10 11 -10 2 0 4 5 4 10 0 6 -5 10 -11 10 -5 0
-7 -4 -4 -10z"/>
<path d="M4716 6061 c-4 -5 -2 -20 3 -33 9 -21 10 -21 10 10 1 32 -3 39 -13
23z"/>
<path d="M4782 6045 c0 -16 2 -22 5 -12 2 9 2 23 0 30 -3 6 -5 -1 -5 -18z"/>
<path d="M9022 6020 c-7 -11 -12 -25 -12 -32 1 -7 8 0 16 15 18 33 14 46 -4
17z"/>
<path d="M6852 6000 c0 -14 2 -19 5 -12 2 6 2 18 0 25 -3 6 -5 1 -5 -13z"/>
<path d="M3135 5958 c4 -18 13 -46 21 -62 8 -16 14 -33 14 -38 0 -4 11 -31 24
-58 13 -27 21 -52 16 -55 -4 -2 -4 -22 1 -42 5 -21 11 -50 14 -64 2 -14 16
-42 30 -63 14 -21 23 -41 20 -46 -3 -4 13 -43 34 -86 21 -44 51 -106 66 -138
15 -33 42 -81 61 -107 19 -27 34 -52 34 -57 0 -8 34 -50 131 -165 46 -53 123
-111 141 -105 7 3 -10 24 -36 49 -86 80 -112 150 -61 163 30 8 31 24 9 105
l-17 60 -68 -6 c-73 -6 -89 1 -38 19 20 7 28 15 25 25 -3 8 -6 23 -6 34 0 10
-5 19 -11 19 -7 0 -10 -12 -7 -30 5 -32 -11 -40 -42 -20 -12 7 -12 12 -2 22
14 14 17 68 3 68 -13 0 -51 67 -51 90 0 10 -7 20 -15 24 -16 6 -21 36 -5 36 5
0 25 -13 43 -30 30 -26 57 -38 57 -26 0 2 -29 33 -65 67 -36 35 -65 69 -65 74
0 6 -10 21 -23 35 -42 47 -87 108 -87 119 0 6 -5 11 -10 11 -6 0 -15 11 -20
25 -5 14 -18 38 -29 53 -10 15 -33 51 -51 80 -19 28 -35 52 -37 52 -3 0 -2
-15 2 -32z"/>
<path d="M3414 5968 c3 -13 6 -26 6 -30 0 -5 6 -8 14 -8 8 0 16 -6 19 -12 2
-7 7 -10 11 -7 9 8 -25 67 -43 74 -10 4 -12 -1 -7 -17z"/>
<path d="M7342 5958 c-7 -7 -12 -15 -12 -19 0 -4 -8 -24 -17 -45 -9 -22 -18
-46 -19 -54 -5 -25 36 33 42 60 3 14 9 35 14 48 11 25 9 27 -8 10z"/>
<path d="M9000 5950 c0 -11 4 -20 9 -20 5 0 7 9 4 20 -3 11 -7 20 -9 20 -2 0
-4 -9 -4 -20z"/>
<path d="M9063 5948 c-29 -38 -118 -318 -101 -318 2 0 23 9 46 20 33 16 42 27
48 55 3 20 2 41 -4 48 -11 12 -5 67 7 67 4 0 13 -6 20 -12 11 -11 13 -8 8 16
-7 41 11 78 35 70 21 -6 23 4 4 29 -7 9 -23 17 -35 17 -12 0 -19 4 -16 10 9
14 -1 12 -12 -2z"/>
<path d="M7790 5940 c0 -5 9 -10 21 -10 11 0 17 5 14 10 -3 6 -13 10 -21 10
-8 0 -14 -4 -14 -10z"/>
<path d="M3610 5892 c0 -4 13 -23 30 -42 29 -35 39 -73 21 -85 -6 -3 -14 3
-20 12 -6 10 -11 14 -11 10 0 -13 46 -110 64 -132 15 -20 15 -20 16 1 0 12 -7
27 -15 34 -8 7 -15 22 -15 34 0 16 2 18 9 7 6 -9 18 -11 34 -7 30 7 51 -14 42
-44 -5 -17 -9 -19 -21 -9 -22 18 -30 2 -9 -21 15 -16 16 -22 5 -35 -11 -13
-15 -13 -21 -3 -13 19 -11 -5 2 -39 6 -15 14 -50 18 -78 5 -43 9 -50 29 -49
15 0 22 -5 22 -18 0 -10 5 -18 10 -18 6 0 10 21 10 46 0 32 -3 43 -12 38 -7
-4 -8 -3 -4 4 4 7 2 12 -3 12 -14 0 -14 57 -1 65 6 4 10 -8 10 -29 0 -20 5
-36 10 -36 6 0 10 3 10 8 0 4 5 40 10 81 11 86 13 83 -123 221 -73 74 -97 92
-97 72z m193 -252 c-3 -11 -9 -17 -15 -14 -5 3 -4 12 3 20 16 19 18 18 12 -6z"/>
<path d="M7460 5865 c0 -22 58 -88 99 -114 60 -37 61 -37 61 -11 0 11 -12 27
-27 37 -16 10 -49 34 -74 55 -43 36 -59 45 -59 33z"/>
<path d="M7560 5840 c9 -18 40 -40 54 -40 3 0 6 11 6 24 0 16 -7 26 -22 30
-42 11 -50 8 -38 -14z"/>
<path d="M4672 5810 c0 -19 2 -27 5 -17 2 9 2 25 0 35 -3 9 -5 1 -5 -18z"/>
<path d="M7420 5826 c0 -8 7 -16 15 -20 17 -6 18 -4 9 18 -8 20 -24 21 -24 2z"/>
<path d="M8947 5833 c-4 -3 -7 -15 -7 -26 0 -16 3 -17 15 -7 8 7 15 19 15 26
0 15 -12 19 -23 7z"/>
<path d="M7763 5803 c-22 -8 -15 -32 7 -26 11 3 20 12 20 19 0 14 -6 16 -27 7z"/>
<path d="M4485 5750 c6 -49 25 -114 31 -107 2 2 -5 37 -16 78 -15 56 -19 63
-15 29z"/>
<path d="M7251 5764 c-35 -44 -30 -50 56 -63 32 -5 68 -12 80 -16 42 -13 40
22 -3 66 -21 21 -39 37 -40 36 -10 -9 11 -46 28 -50 11 -3 18 -12 15 -19 -4
-13 -22 -14 -85 -3 -33 6 -34 8 -28 41 8 41 4 42 -23 8z"/>
<path d="M7962 5778 c-14 -18 -19 -50 -7 -54 6 -1 23 13 38 32 l29 34 -25 0
c-13 0 -29 -6 -35 -12z"/>
<path d="M4546 5750 c4 -19 17 -86 30 -148 13 -63 23 -117 23 -120 -3 -22 5
-31 41 -40 37 -9 40 -8 40 10 0 34 -51 243 -62 253 -7 7 -8 4 -4 -10 10 -34
36 -189 35 -215 l0 -25 -19 24 c-11 13 -20 33 -20 44 0 31 -51 241 -61 252 -6
6 -7 -4 -3 -25z"/>
<path d="M7416 5771 c-3 -5 1 -14 8 -20 16 -13 32 2 21 19 -8 12 -22 13 -29 1z"/>
<path d="M9435 5750 c3 -5 11 -10 17 -10 6 0 19 -7 29 -16 14 -12 28 -14 61
-9 l43 8 -55 18 c-62 20 -104 24 -95 9z"/>
<path d="M7462 5738 c-18 -18 -15 -29 23 -83 49 -68 99 -108 169 -135 35 -13
33 -4 -3 15 -17 8 -43 27 -58 41 -22 21 -23 24 -6 15 25 -13 73 -15 73 -3 0 4
-19 13 -42 20 -24 6 -60 28 -82 48 -35 33 -43 48 -45 82 -1 15 -13 16 -29 0z"/>
<path d="M3952 5710 c0 -14 2 -19 5 -12 2 6 2 18 0 25 -3 6 -5 1 -5 -13z"/>
<path d="M7040 5701 c39 -34 67 -39 77 -15 9 23 -7 33 -62 40 l-50 6 35 -31z"/>
<path d="M7540 5720 c0 -16 47 -60 65 -60 26 0 17 24 -18 45 -45 27 -47 28
-47 15z"/>
<path d="M8598 5688 c-37 -19 -50 -38 -26 -38 15 0 78 42 78 53 0 10 -9 7 -52
-15z"/>
<path d="M9395 5700 c-3 -5 1 -10 9 -10 9 0 16 5 16 10 0 6 -4 10 -9 10 -6 0
-13 -4 -16 -10z"/>
<path d="M7130 5690 c0 -5 11 -10 25 -10 14 0 25 5 25 10 0 6 -11 10 -25 10
-14 0 -25 -4 -25 -10z"/>
<path d="M8661 5676 c-19 -20 -20 -24 -6 -30 11 -4 19 2 25 18 5 13 15 26 22
29 9 4 8 6 -3 6 -8 1 -26 -10 -38 -23z"/>
<path d="M8895 5685 c-4 -11 -11 -31 -17 -45 -19 -47 -45 -135 -52 -175 l-6
-40 24 45 c14 25 30 73 37 108 7 36 18 62 25 62 20 0 22 13 8 40 -12 23 -13
23 -19 5z"/>
<path d="M3894 5668 c9 -31 59 -103 64 -90 2 6 -7 25 -20 41 -12 15 -29 37
-36 47 -10 15 -12 16 -8 2z"/>
<path d="M7217 5674 c-4 -4 -7 -16 -7 -26 0 -10 -7 -18 -15 -18 -9 0 -12 6 -9
15 5 11 -1 15 -19 15 -41 0 -41 -18 0 -38 21 -10 48 -25 60 -32 19 -13 30 -11
90 9 159 54 159 54 53 65 -36 4 -83 9 -105 12 -22 3 -43 2 -48 -2z m115 -24
c28 0 17 -22 -12 -27 -14 -2 -29 -8 -34 -13 -20 -20 -36 -10 -36 21 0 30 2 31
31 25 17 -3 40 -6 51 -6z"/>
<path d="M8400 5660 c-27 -11 -47 -26 -53 -41 -5 -13 -14 -34 -20 -46 -14 -30
-10 -33 39 -24 51 10 154 84 154 111 0 17 -7 20 -37 19 -21 -1 -58 -9 -83 -19z"/>
<path d="M8705 5640 c-3 -5 3 -10 14 -10 12 0 21 5 21 10 0 6 -6 10 -14 10 -8
0 -18 -4 -21 -10z"/>
<path d="M1875 5630 c-27 -11 -65 -48 -65 -63 0 -6 11 1 25 16 14 15 32 27 39
27 8 0 16 7 20 15 3 8 4 15 3 14 -1 0 -11 -4 -22 -9z"/>
<path d="M1965 5630 c-4 -6 3 -10 14 -10 25 0 27 6 6 13 -8 4 -17 2 -20 -3z"/>
<path d="M3449 5611 c28 -39 44 -49 30 -19 -6 13 -20 30 -31 37 -20 12 -20 12
1 -18z"/>
<path d="M4172 5615 c-15 -32 -15 -45 -2 -45 16 0 35 49 23 61 -6 6 -13 1 -21
-16z"/>
<path d="M8570 5623 c-15 -5 -49 -43 -50 -54 0 -3 41 -7 90 -8 82 -1 90 0 90
17 0 29 -91 60 -130 45z m78 -26 c12 -1 22 -8 22 -15 0 -7 -5 -10 -11 -6 -6 3
-31 6 -55 6 -24 -1 -44 2 -44 7 0 16 15 22 40 16 14 -4 35 -7 48 -8z"/>
<path d="M4526 5585 c4 -22 8 -56 8 -75 1 -29 -2 -35 -19 -32 -11 1 -39 3 -62
3 -35 0 -41 3 -36 16 4 11 2 14 -5 9 -8 -5 -10 -2 -6 9 8 19 -21 65 -41 65
-18 0 -19 -16 -4 -75 13 -50 17 -52 133 -47 l78 4 -7 46 c-4 26 -16 63 -26 82
l-20 35 7 -40z"/>
<path d="M7410 5603 c-41 -14 -59 -28 -60 -44 0 -12 98 -36 114 -27 9 5 25 6
36 3 40 -13 40 7 0 46 -22 21 -41 39 -43 39 -1 -1 -22 -8 -47 -17z m53 -20 c8
-7 -11 -33 -23 -33 -5 0 -6 9 -3 20 5 20 15 25 26 13z"/>
<path d="M9150 5602 c-44 -6 -47 -22 -4 -22 45 0 77 15 47 21 -10 3 -29 3 -43
1z"/>
<path d="M3662 5580 c0 -14 2 -19 5 -12 2 6 2 18 0 25 -3 6 -5 1 -5 -13z"/>
<path d="M8459 5572 c-28 -21 -70 -38 -118 -46 -18 -3 -49 -20 -68 -37 -20
-17 -46 -35 -59 -41 -65 -30 33 -42 102 -13 48 20 184 124 184 140 0 20 -12
19 -41 -3z"/>
<path d="M8780 5560 c-6 -10 -13 -41 -15 -67 l-5 -48 25 50 c26 52 32 85 15
85 -5 0 -14 -9 -20 -20z"/>
<path d="M8908 5540 c-30 -64 -66 -170 -56 -170 17 0 58 49 58 70 0 12 5 30
11 41 5 11 9 37 7 57 l-3 37 -17 -35z"/>
<path d="M3681 5524 c0 -11 3 -14 6 -6 3 7 2 16 -1 19 -3 4 -6 -2 -5 -13z"/>
<path d="M8520 5525 c-36 -8 -78 -28 -121 -58 -83 -59 -130 -69 -269 -61 -106
7 -110 6 -110 -13 0 -11 22 -40 48 -65 75 -70 161 -80 281 -32 30 12 46 26 56
50 14 34 51 51 38 18 -5 -14 -2 -14 23 2 24 15 102 75 139 106 5 4 -6 8 -25 8
-26 0 -41 -9 -72 -42 -21 -23 -38 -36 -38 -30 0 13 -58 -9 -99 -38 -43 -30
-118 -42 -190 -31 -35 6 -71 17 -80 24 -9 8 -23 17 -31 20 -9 3 -4 6 11 6 15
1 32 -5 38 -13 16 -19 143 -26 195 -11 56 17 166 92 166 113 0 5 7 15 15 22
11 9 15 10 15 1 0 -8 8 -10 22 -5 13 4 47 8 76 9 66 2 97 25 35 25 -23 0 -47
2 -55 4 -7 2 -38 -2 -68 -9z"/>
<path d="M7533 5513 c-22 -9 -14 -21 17 -25 24 -4 30 -1 28 11 -3 17 -24 23
-45 14z"/>
<path d="M3990 5506 c0 -1 5 -17 11 -35 l11 -32 125 2 c68 2 127 7 130 12 3 5
-6 21 -21 35 l-26 27 0 -25 c0 -19 -3 -21 -12 -12 -16 16 -45 15 -51 -2 -13
-34 -130 -22 -140 14 -4 16 -27 30 -27 16z"/>
<path d="M7640 5475 c0 -2 14 -11 30 -20 17 -9 30 -11 30 -6 0 6 -9 15 -19 21
-21 11 -41 13 -41 5z"/>
<path d="M4480 5430 c-75 -4 -85 -7 -88 -25 -7 -47 -13 -50 -30 -16 l-16 34
-154 -6 c-84 -3 -156 -8 -159 -11 -7 -7 26 -134 36 -140 4 -3 47 6 96 20 50
13 103 27 118 31 30 6 30 6 15 74 -2 8 4 14 12 14 10 0 17 -13 20 -35 6 -41
23 -47 89 -28 43 13 68 38 39 38 -8 0 -15 7 -15 15 0 10 10 15 29 15 26 0 28
-2 18 -20 -9 -17 -8 -20 12 -20 13 1 41 7 63 15 22 8 58 15 80 16 32 0 36 2
20 9 -11 5 -34 9 -50 9 -17 1 -35 4 -40 9 -6 4 -48 5 -95 2z m-335 -42 c3 -3
-5 -8 -18 -12 -16 -4 -27 -16 -32 -33 -6 -27 -7 -27 -21 -9 -8 11 -14 30 -14
43 0 22 4 24 40 20 22 -2 42 -6 45 -9z"/>
<path d="M5738 5404 c-5 -4 -8 -19 -8 -33 1 -23 2 -24 11 -8 11 19 9 53 -3 41z"/>
<path d="M3960 5372 c0 -21 -6 -31 -20 -35 -16 -4 -20 -14 -20 -46 0 -23 -4
-41 -9 -41 -15 0 -9 -44 8 -56 15 -12 17 -64 5 -136 -6 -40 -13 -45 -32 -26
-7 7 -12 8 -12 4 0 -5 -7 -3 -15 4 -8 7 -15 8 -15 2 0 -5 7 -15 15 -22 8 -7
15 -23 15 -36 0 -13 3 -24 8 -24 14 0 43 -66 36 -83 -8 -21 9 -22 30 -1 21 20
20 23 -10 46 -18 15 -22 24 -15 31 6 6 11 25 11 41 1 58 25 131 45 135 45 8
61 -93 26 -162 -10 -20 -15 -37 -9 -37 5 0 19 21 30 47 19 43 20 59 14 169 -6
125 -29 219 -50 211 -7 -3 -12 3 -12 15 1 12 -5 23 -11 25 -9 3 -13 -6 -13
-25z m39 -97 c0 -5 -4 -3 -10 5 -8 11 -12 12 -16 3 -7 -20 -23 -15 -23 6 0 40
47 26 49 -14z"/>
<path d="M5570 5389 c0 -5 5 -7 10 -4 6 3 10 8 10 11 0 2 -4 4 -10 4 -5 0 -10
-5 -10 -11z"/>
<path d="M8588 5372 c-21 -15 -38 -31 -38 -35 0 -9 42 14 81 44 39 30 -1 22
-43 -9z"/>
<path d="M2461 5367 c2 -1 13 -9 24 -17 19 -14 19 -14 6 3 -7 9 -18 17 -24 17
-6 0 -8 -1 -6 -3z"/>
<path d="M4920 5326 c0 -14 5 -28 10 -31 6 -3 10 5 10 19 0 14 -4 28 -10 31
-6 3 -10 -5 -10 -19z"/>
<path d="M8007 5343 c-9 -14 48 -75 67 -72 14 3 10 11 -22 42 -22 22 -42 35
-45 30z"/>
<path d="M4455 5321 c-24 -5 -30 -11 -28 -31 4 -62 67 -269 78 -258 2 2 -3 31
-11 63 -8 33 -20 84 -25 113 -5 30 -11 59 -12 65 -1 6 15 19 36 29 20 10 37
20 37 23 0 6 -37 4 -75 -4z"/>
<path d="M2417 5285 c-10 -14 -27 -25 -37 -25 -26 0 -25 -13 5 -58 13 -20 34
-66 45 -102 23 -74 42 -95 73 -79 14 8 26 8 43 -2 28 -15 45 -4 21 14 -15 11
-57 98 -57 117 0 9 -70 160 -73 160 -1 0 -10 -12 -20 -25z m29 -110 c26 -52
28 -75 5 -60 -6 3 -11 14 -11 23 0 9 -7 30 -15 46 -15 28 -19 46 -11 46 3 0
17 -25 32 -55z"/>
<path d="M3758 5289 c-22 -12 -23 -38 -2 -67 25 -37 39 -27 39 28 0 51 -6 57
-37 39z"/>
<path d="M7654 5226 c-33 -15 -67 -54 -58 -68 6 -10 26 9 43 40 6 12 21 22 31
22 11 0 20 5 20 10 0 12 2 12 -36 -4z"/>
<path d="M9180 5233 c0 -12 60 -100 81 -119 21 -19 21 -19 8 11 -7 17 -16 34
-21 40 -4 5 -8 19 -8 32 0 16 -8 27 -26 33 -30 12 -34 12 -34 3z"/>
<path d="M3223 5213 c-28 -4 -81 -48 -70 -59 6 -6 277 9 277 16 0 3 -9 16 -19
27 -16 17 -31 20 -88 20 -37 0 -83 -2 -100 -4z"/>
<path d="M2533 5202 c-17 -11 28 -62 55 -62 11 0 24 -5 27 -10 4 -6 11 -8 16
-4 13 8 -20 33 -43 34 -10 0 -20 11 -24 25 -7 27 -12 29 -31 17z"/>
<path d="M3826 5201 c-3 -5 3 -11 14 -14 14 -3 20 -14 22 -34 2 -53 17 -103
30 -103 12 0 4 95 -10 133 -11 26 -44 37 -56 18z"/>
<path d="M8656 5181 c-4 -7 -5 -15 -2 -18 9 -9 19 4 14 18 -4 11 -6 11 -12 0z"/>
<path d="M8750 5149 c-12 -23 -19 -43 -17 -45 7 -7 57 56 57 72 0 27 -20 14
-40 -27z"/>
<path d="M2272 5163 c-24 -9 -41 -18 -38 -20 3 -3 28 2 56 11 28 9 61 14 73
11 17 -5 19 -4 7 4 -19 14 -45 12 -98 -6z"/>
<path d="M2985 5134 c-198 -51 -214 -55 -240 -48 -19 5 -25 2 -25 -11 0 -13
-6 -16 -25 -13 -14 3 -25 1 -25 -5 0 -9 276 0 293 10 5 3 6 12 3 20 -5 11 -1
13 15 8 19 -6 38 -1 91 26 10 5 26 9 37 9 16 0 31 18 31 36 0 8 -25 3 -155
-32z"/>
<path d="M3300 5140 c-163 -9 -242 -30 -282 -74 -39 -41 -48 -66 -48 -129 0
-46 3 -53 25 -64 22 -10 34 -8 72 9 60 27 319 87 333 78 13 -8 9 -9 -114 -34
-113 -22 -240 -70 -313 -116 -37 -24 -48 -64 -29 -105 9 -19 20 -35 25 -35 4
0 15 -16 24 -35 20 -42 44 -45 77 -10 13 14 29 25 37 25 19 0 16 18 -17 85
-35 72 -37 91 -9 105 26 14 36 6 19 -15 -17 -20 3 -68 36 -85 17 -10 22 -19
18 -32 -3 -10 -2 -18 3 -18 5 0 58 25 118 55 61 30 121 54 135 54 l25 0 -25
-12 c-14 -6 -45 -19 -70 -30 -73 -31 -83 -36 -135 -75 l-50 -37 38 -3 c20 -2
37 -6 37 -10 0 -4 6 -44 14 -89 16 -102 6 -111 -57 -44 -47 49 -65 85 -47 96
13 8 13 35 -1 35 -25 0 -89 -62 -89 -86 0 -14 6 -24 14 -24 7 0 42 -34 77 -75
l64 -75 64 0 c52 0 69 4 87 21 l23 21 -6 -21 c-3 -11 -12 -21 -19 -21 -23 0
-16 -15 16 -33 16 -10 36 -25 45 -33 23 -23 43 -21 132 16 l83 34 53 -17 c71
-23 79 -22 110 11 l28 29 -40 68 c-22 38 -38 71 -35 74 3 3 11 -2 17 -11 50
-73 70 -99 73 -95 3 2 1 15 -5 28 -19 50 -34 139 -29 183 4 36 2 49 -13 62
-15 14 -19 14 -23 3 -16 -58 -26 -88 -35 -114 -5 -16 -22 -69 -36 -117 -15
-49 -31 -88 -36 -88 -12 0 -11 12 5 62 7 24 19 63 26 88 6 25 16 53 22 63 5
10 12 41 15 68 7 55 35 88 60 67 10 -8 13 -7 13 4 0 7 -17 22 -37 33 -47 25
-86 66 -74 78 5 5 7 16 4 23 -6 16 -30 19 -35 4 -7 -21 -49 4 -65 39 -9 20
-15 40 -14 44 1 4 -10 23 -24 41 -14 18 -25 37 -25 42 0 5 -16 27 -35 48 -19
22 -37 48 -41 58 -3 10 -8 17 -12 16 -4 0 -68 -4 -142 -8z m-240 -151 c0 -6
-4 -7 -10 -4 -5 3 -10 11 -10 16 0 6 5 7 10 4 6 -3 10 -11 10 -16z m-36 -26
c4 -16 9 -36 12 -45 9 -32 -24 -9 -35 24 -14 40 -14 48 3 48 8 0 17 -12 20
-27z m611 -151 c-3 -3 -11 0 -18 7 -9 10 -8 11 6 5 10 -3 15 -9 12 -12z m20
-22 c3 -5 1 -10 -4 -10 -6 0 -11 5 -11 10 0 6 2 10 4 10 3 0 8 -4 11 -10z m79
-36 c25 -9 19 -24 -9 -24 -16 0 -25 6 -25 15 0 16 9 19 34 9z m-210 -165 c-24
-27 -30 -15 -9 18 12 17 20 23 23 15 2 -7 -4 -22 -14 -33z m-46 -59 c-48 -64
-77 -95 -78 -82 0 6 11 22 25 34 14 12 25 26 25 32 0 12 30 46 42 46 5 0 -1
-14 -14 -30z m-144 -85 c3 -9 0 -15 -9 -15 -8 0 -15 7 -15 15 0 8 4 15 9 15 5
0 11 -7 15 -15z"/>
<path d="M8624 5125 c-12 -13 -19 -26 -16 -29 2 -3 -5 -16 -16 -28 -61 -67
-72 -83 -83 -116 -6 -21 -16 -43 -21 -49 -11 -14 12 -28 33 -21 14 5 17 18 28
117 0 8 9 11 21 8 13 -3 21 1 25 13 3 10 16 34 29 53 45 65 44 103 0 52z"/>
<path d="M2335 5115 c-16 -7 -23 -14 -14 -14 8 -1 24 6 35 14 24 18 18 18 -21
0z"/>
<path d="M2138 5115 c-3 -3 -14 -7 -24 -10 -64 -13 -167 -62 -159 -75 3 -4
-11 -18 -30 -30 -20 -12 -34 -24 -32 -26 5 -5 70 14 76 23 13 17 103 75 146
94 43 19 55 29 37 29 -5 0 -11 -2 -14 -5z m-148 -75 c0 -5 -5 -10 -11 -10 -5
0 -7 5 -4 10 3 6 8 10 11 10 2 0 4 -4 4 -10z"/>
<path d="M2550 5113 c0 -5 5 -15 10 -23 8 -12 10 -11 10 8 0 12 -4 22 -10 22
-5 0 -10 -3 -10 -7z"/>
<path d="M3980 5071 c0 -16 -4 -41 -10 -55 -5 -15 -6 -36 -1 -48 l8 -22 12 23
c7 12 15 47 18 77 5 46 3 54 -11 54 -11 0 -16 -9 -16 -29z"/>
<path d="M8692 5083 c-25 -22 -57 -73 -46 -73 23 1 83 74 71 86 -2 3 -13 -3
-25 -13z"/>
<path d="M2177 5070 c-15 -5 -55 -21 -89 -37 l-62 -28 80 -6 c43 -3 93 -12
111 -19 29 -13 40 -11 118 15 47 15 83 30 81 32 -3 3 -19 0 -38 -5 -18 -6 -58
-18 -89 -27 -51 -16 -58 -16 -87 -1 -17 9 -45 16 -62 16 -35 0 -40 17 -7 29
83 32 109 51 44 31z"/>
<path d="M2788 5033 c-27 -2 -48 -6 -48 -7 0 -2 12 -17 28 -33 15 -17 33 -47
41 -68 7 -21 32 -68 54 -106 l41 -68 13 29 c6 16 26 38 44 49 30 19 31 19 10
30 -19 11 -21 20 -21 96 l0 85 -57 -2 c-32 -1 -79 -3 -105 -5z"/>
<path d="M3660 5027 c0 -11 45 -67 55 -67 5 0 -11 55 -20 70 -9 14 -35 13 -35
-3z"/>
<path d="M2616 5015 c4 -8 10 -15 15 -15 5 0 9 7 9 15 0 8 -7 15 -15 15 -9 0
-12 -6 -9 -15z"/>
<path d="M2690 5007 c0 -18 82 -230 109 -282 l20 -40 1 39 c0 26 -15 70 -45
134 -26 52 -49 107 -52 123 -3 16 -12 29 -19 29 -8 0 -14 -1 -14 -3z"/>
<path d="M2540 4980 c0 -37 169 -337 177 -314 7 22 -104 263 -140 302 -22 23
-37 29 -37 12z"/>
<path d="M2605 4980 c3 -5 8 -10 11 -10 2 0 4 5 4 10 0 6 -5 10 -11 10 -5 0
-7 -4 -4 -10z"/>
<path d="M2337 4923 c-20 -3 -27 -9 -25 -21 3 -9 11 -16 18 -14 8 2 37 6 65 9
l50 6 -35 13 c-19 7 -37 12 -40 12 -3 -1 -18 -3 -33 -5z"/>
<path d="M9933 4840 c0 -47 2 -66 4 -42 2 23 2 61 0 85 -2 23 -4 4 -4 -43z"/>
<path d="M4000 4880 c0 -5 -18 -28 -41 -51 l-41 -41 33 7 c68 13 69 14 69 56
0 21 -4 39 -10 39 -5 0 -10 -4 -10 -10z"/>
<path d="M3890 4840 c0 -5 4 -10 9 -10 6 0 13 5 16 10 3 6 -1 10 -9 10 -9 0
-16 -4 -16 -10z"/>
<path d="M3720 4830 c20 -13 33 -13 25 0 -3 6 -14 10 -23 10 -15 0 -15 -2 -2
-10z"/>
<path d="M2341 4819 c-1 -9 6 -34 15 -54 8 -21 13 -46 11 -56 -3 -12 2 -20 15
-25 34 -10 33 5 -4 79 -20 40 -37 65 -37 56z"/>
<path d="M3765 4810 c3 -5 11 -10 16 -10 6 0 7 5 4 10 -3 6 -11 10 -16 10 -6
0 -7 -4 -4 -10z"/>
<path d="M3962 4759 c-18 -5 -30 -14 -27 -19 4 -7 13 -6 25 0 32 17 59 12 65
-13 7 -26 -10 -77 -25 -77 -5 0 -10 -7 -10 -15 0 -21 43 -4 55 23 5 12 18 25
27 28 29 9 21 29 -22 58 -43 29 -41 28 -88 15z"/>
<path d="M8726 4761 c-3 -4 6 -19 21 -32 l26 -24 -17 33 c-17 34 -22 37 -30
23z"/>
<path d="M4110 4708 c0 -12 -7 -30 -17 -40 -12 -13 -17 -40 -18 -101 -1 -45
-6 -95 -10 -112 -7 -27 -7 -29 8 -17 41 35 116 193 117 249 0 20 -30 43 -56
43 -18 0 -24 -5 -24 -22z"/>
<path d="M3950 4710 c0 -5 5 -10 10 -10 6 0 10 5 10 10 0 6 -4 10 -10 10 -5 0
-10 -4 -10 -10z"/>
<path d="M3961 4674 c0 -11 3 -14 6 -6 3 7 2 16 -1 19 -3 4 -6 -2 -5 -13z"/>
<path d="M4006 4584 c-3 -8 -2 -12 4 -9 6 3 10 -1 10 -10 0 -9 5 -13 10 -10
15 9 12 45 -4 45 -8 0 -17 -7 -20 -16z"/>
<path d="M8876 4566 c22 -55 34 -72 63 -89 22 -13 29 -13 44 -3 23 18 21 26
-7 26 -22 0 -63 35 -101 85 -13 17 -13 15 1 -19z"/>
<path d="M3990 4541 c0 -11 4 -22 9 -26 5 -3 13 -20 17 -38 6 -28 8 -29 15
-12 12 32 10 41 -16 69 -23 24 -25 25 -25 7z"/>
<path d="M3855 4520 c3 -5 8 -10 11 -10 2 0 4 5 4 10 0 6 -5 10 -11 10 -5 0
-7 -4 -4 -10z"/>
<path d="M3860 4483 c0 -10 8 -27 17 -38 15 -20 15 -19 9 5 -3 14 -6 31 -6 38
0 6 -4 12 -10 12 -5 0 -10 -8 -10 -17z"/>
<path d="M2930 4470 c0 -5 5 -10 11 -10 5 0 7 5 4 10 -3 6 -8 10 -11 10 -2 0
-4 -4 -4 -10z"/>
<path d="M3865 4387 c-12 -10 -15 -16 -6 -21 6 -4 18 -1 26 8 27 27 13 36 -20
13z"/>
<path d="M2918 4330 c-20 -11 -46 -33 -58 -50 -26 -36 -20 -38 15 -5 37 34
117 58 172 52 30 -3 43 -1 40 7 -7 20 -128 17 -169 -4z"/>
<path d="M3250 4330 c31 -24 53 -26 48 -2 -2 11 -14 18 -38 20 l-35 3 25 -21z"/>
<path d="M3147 4320 c3 -11 7 -20 9 -20 2 0 4 9 4 20 0 11 -4 20 -9 20 -5 0
-7 -9 -4 -20z"/>
<path d="M3204 4267 c18 -19 37 -51 43 -73 l10 -39 2 39 c1 31 -5 44 -33 72
-44 44 -63 44 -22 1z"/>
<path d="M1440 4225 c0 -8 5 -15 10 -15 6 0 10 7 10 15 0 8 -4 15 -10 15 -5 0
-10 -7 -10 -15z"/>
<path d="M7995 4170 c3 -5 15 -10 26 -10 10 0 19 5 19 10 0 6 -12 10 -26 10
-14 0 -23 -4 -19 -10z"/>
<path d="M8070 4176 c0 -2 7 -9 15 -16 13 -11 14 -10 9 4 -5 14 -24 23 -24 12z"/>
<path d="M8210 4112 c0 -5 9 -17 20 -27 22 -20 26 -9 6 18 -14 18 -26 22 -26
9z"/>
<path d="M2629 3670 c-2 -80 -8 -154 -13 -165 -8 -17 -5 -16 18 5 26 23 28 28
21 80 -4 30 -10 93 -14 140 -7 85 -7 85 -12 -60z"/>
<path d="M2195 3756 c3 -11 8 -47 12 -80 8 -83 25 -109 20 -31 -2 33 -11 76
-21 95 -9 19 -14 26 -11 16z"/>
<path d="M3588 3683 c7 -3 16 -2 19 1 4 3 -2 6 -13 5 -11 0 -14 -3 -6 -6z"/>
<path d="M3571 3644 c0 -11 3 -14 6 -6 3 7 2 16 -1 19 -3 4 -6 -2 -5 -13z"/>
<path d="M3498 3633 c-14 -4 -33 -31 -26 -39 2 -1 14 6 28 16 26 20 26 29 -2
23z"/>
<path d="M3426 3544 c-8 -21 -8 -21 14 -27 10 -3 24 1 31 9 9 11 8 14 -5 14
-9 0 -16 5 -16 10 0 16 -17 12 -24 -6z"/>
<path d="M3350 3531 c0 -6 5 -13 10 -16 6 -3 10 1 10 9 0 9 -4 16 -10 16 -5 0
-10 -4 -10 -9z"/>
<path d="M3397 3484 c-3 -6 7 -38 23 -70 16 -33 29 -55 29 -51 1 5 -3 17 -9
27 -8 15 -6 17 10 13 11 -3 20 0 20 6 0 6 -6 11 -13 11 -18 0 -44 30 -49 55
-2 12 -6 16 -11 9z"/>
<path d="M3450 3312 c0 -8 49 -82 54 -82 7 0 -39 89 -46 90 -5 0 -8 -3 -8 -8z"/>
<path d="M3182 3222 c-46 -43 -54 -55 -51 -78 0 -4 -5 -11 -13 -16 -9 -7 -1
-8 23 -5 27 4 51 19 88 56 31 30 46 51 36 51 -8 0 -15 9 -15 20 0 29 -10 25
-68 -28z"/>
<path d="M7110 8956 c0 -8 7 -16 15 -20 13 -4 14 -2 5 14 -13 23 -20 26 -20 6z"/>
<path d="M8187 5739 c-26 -15 -67 -104 -74 -161 -5 -42 -3 -53 12 -64 28 -21
38 -18 82 24 52 47 63 70 63 125 0 33 -6 49 -23 65 -26 25 -34 26 -60 11z"/>
<path d="M7456 4058 c3 -5 10 -6 15 -3 13 9 11 12 -6 12 -8 0 -12 -4 -9 -9z"/>
<path d="M4920 3260 c0 -5 5 -10 10 -10 6 0 10 5 10 10 0 6 -4 10 -10 10 -5 0
-10 -4 -10 -10z"/>
<path d="M5145 3030 c4 -6 11 -8 16 -5 14 9 11 15 -7 15 -8 0 -12 -5 -9 -10z"/>
<path d="M4735 2791 c-3 -5 -1 -12 5 -16 12 -7 30 2 30 16 0 12 -27 12 -35 0z"/>
<path d="M4895 2820 c3 -5 8 -10 11 -10 2 0 4 5 4 10 0 6 -5 10 -11 10 -5 0
-7 -4 -4 -10z"/>
<path d="M7365 1440 c-3 -5 1 -10 9 -10 9 0 16 5 16 10 0 6 -4 10 -9 10 -6 0
-13 -4 -16 -10z"/>
<path d="M7526 1402 c-2 -4 4 -9 15 -9 11 -1 17 2 14 8 -7 11 -22 12 -29 1z"/>
<path d="M7488 1363 c7 -3 16 -2 19 1 4 3 -2 6 -13 5 -11 0 -14 -3 -6 -6z"/>
<path d="M7372 1338 c-7 -7 -12 -27 -12 -45 0 -28 4 -33 23 -33 16 0 18 3 8 9
-25 16 -5 59 32 70 l32 9 -35 1 c-20 1 -41 -4 -48 -11z"/>
<path d="M7600 1320 c-13 -8 -12 -10 3 -10 9 0 17 5 17 10 0 12 -1 12 -20 0z"/>
<path d="M7520 1310 c-13 -8 -12 -10 3 -10 9 0 17 5 17 10 0 12 -1 12 -20 0z"/>
<path d="M6945 1300 c3 -5 8 -10 11 -10 2 0 4 5 4 10 0 6 -5 10 -11 10 -5 0
-7 -4 -4 -10z"/>
<path d="M7110 1279 c0 -5 5 -7 10 -4 6 3 10 8 10 11 0 2 -4 4 -10 4 -5 0 -10
-5 -10 -11z"/>
<path d="M7020 1254 c0 -8 5 -12 10 -9 6 4 8 11 5 16 -9 14 -15 11 -15 -7z"/>
<path d="M7120 1229 c0 -5 5 -7 10 -4 6 3 10 8 10 11 0 2 -4 4 -10 4 -5 0 -10
-5 -10 -11z"/>
<path d="M7051 1214 c0 -11 3 -14 6 -6 3 7 2 16 -1 19 -3 4 -6 -2 -5 -13z"/>
<path d="M7105 1160 c3 -5 8 -10 11 -10 2 0 4 5 4 10 0 6 -5 10 -11 10 -5 0
-7 -4 -4 -10z"/>
<path d="M7600 815 c0 -9 5 -15 11 -13 6 2 11 8 11 13 0 5 -5 11 -11 13 -6 2
-11 -4 -11 -13z"/>
<path d="M7235 810 c-3 -5 -1 -10 4 -10 6 0 11 5 11 10 0 6 -2 10 -4 10 -3 0
-8 -4 -11 -10z"/>
<path d="M7340 804 c0 -14 3 -14 15 -4 8 7 15 14 15 16 0 2 -7 4 -15 4 -8 0
-15 -7 -15 -16z"/>
<path d="M7658 803 c7 -3 16 -2 19 1 4 3 -2 6 -13 5 -11 0 -14 -3 -6 -6z"/>
<path d="M7275 790 c4 -6 11 -8 16 -5 14 9 11 15 -7 15 -8 0 -12 -5 -9 -10z"/>
<path d="M7540 754 c0 -18 17 -27 25 -13 4 6 18 8 32 4 14 -3 22 -2 19 3 -9
16 -76 20 -76 6z"/>
<path d="M7630 758 c0 -10 16 -17 50 -20 17 -2 25 2 25 12 0 10 -11 15 -37 16
-21 1 -38 -3 -38 -8z"/>
<path d="M7374 717 c-3 -9 -3 -25 0 -34 6 -15 8 -15 24 0 15 16 15 18 0 34
-16 15 -18 15 -24 0z"/>
<path d="M7752 693 c-21 -15 -21 -16 -5 -29 27 -20 32 -17 31 16 -1 17 -1 30
-2 29 -1 0 -11 -7 -24 -16z"/>
<path d="M7605 621 c-6 -11 9 -23 19 -14 9 9 7 23 -3 23 -6 0 -12 -4 -16 -9z"/>
<path d="M7719 597 c15 -19 48 -22 71 -7 11 7 7 10 -17 10 -17 0 -40 3 -50 7
-16 6 -16 5 -4 -10z"/>
<path d="M7783 531 c-7 -11 -10 -27 -7 -36 9 -21 -8 -19 -29 5 -17 20 -37 27
-37 13 1 -19 18 -33 48 -39 27 -6 32 -3 37 19 4 14 5 33 3 42 -2 13 -5 13 -15
-4z"/>
<path d="M7661 504 c0 -11 3 -14 6 -6 3 7 2 16 -1 19 -3 4 -6 -2 -5 -13z"/>
<path d="M7240 471 c0 -6 5 -13 10 -16 6 -3 10 1 10 9 0 9 -4 16 -10 16 -5 0
-10 -4 -10 -9z"/>
<path d="M7623 467 c5 -15 37 -22 37 -9 0 5 -9 12 -21 15 -13 3 -19 1 -16 -6z"/>
<path d="M7310 441 c0 -25 4 -31 21 -31 16 0 20 5 17 27 -2 17 -10 29 -20 31
-14 3 -18 -3 -18 -27z"/>
<path d="M7720 451 c0 -6 5 -13 10 -16 6 -3 10 1 10 9 0 9 -4 16 -10 16 -5 0
-10 -4 -10 -9z"/>
<path d="M7600 420 c0 -5 5 -10 12 -10 6 0 19 -6 27 -14 20 -17 75 -31 66 -16
-3 5 -13 10 -21 10 -7 0 -19 9 -26 20 -13 20 -58 28 -58 10z"/>
<path d="M7002 380 c0 -14 2 -19 5 -12 2 6 2 18 0 25 -3 6 -5 1 -5 -13z"/>
<path d="M7200 390 c0 -5 5 -10 11 -10 5 0 7 5 4 10 -3 6 -8 10 -11 10 -2 0
-4 -4 -4 -10z"/>
<path d="M7800 380 c0 -5 5 -10 10 -10 6 0 10 5 10 10 0 6 -4 10 -10 10 -5 0
-10 -4 -10 -10z"/>
<path d="M5881 1394 c0 -11 3 -14 6 -6 3 7 2 16 -1 19 -3 4 -6 -2 -5 -13z"/>
<path d="M6325 1400 c-3 -5 -1 -10 4 -10 6 0 11 5 11 10 0 6 -2 10 -4 10 -3 0
-8 -4 -11 -10z"/>
<path d="M5711 1384 c0 -11 3 -14 6 -6 3 7 2 16 -1 19 -3 4 -6 -2 -5 -13z"/>
<path d="M6120 1348 c0 -19 2 -20 10 -8 13 19 13 30 0 30 -5 0 -10 -10 -10
-22z"/>
<path d="M5715 1330 c-3 -5 -1 -10 4 -10 6 0 11 5 11 10 0 6 -2 10 -4 10 -3 0
-8 -4 -11 -10z"/>
<path d="M6070 1295 c0 -18 19 -40 26 -32 4 4 0 15 -9 24 -9 10 -17 13 -17 8z"/>
<path d="M5720 1270 c0 -5 5 -10 10 -10 6 0 10 5 10 10 0 6 -4 10 -10 10 -5 0
-10 -4 -10 -10z"/>
<path d="M5750 1214 c0 -17 17 -36 24 -26 3 5 -1 15 -9 22 -8 7 -15 9 -15 4z"/>
<path d="M5820 1176 c0 -2 7 -9 15 -16 9 -7 15 -8 15 -2 0 5 -7 12 -15 16 -8
3 -15 4 -15 2z"/>
<path d="M5648 1153 c7 -3 16 -2 19 1 4 3 -2 6 -13 5 -11 0 -14 -3 -6 -6z"/>
<path d="M5702 1151 c4 -13 18 -16 19 -4 0 4 -5 9 -11 12 -7 2 -11 -2 -8 -8z"/>
<path d="M5954 1125 c3 -21 16 -31 16 -12 0 9 -4 18 -9 21 -5 4 -8 -1 -7 -9z"/>
<path d="M5730 1101 c0 -5 5 -13 10 -16 6 -3 10 -2 10 4 0 5 -4 13 -10 16 -5
3 -10 2 -10 -4z"/>
<path d="M5630 1040 c0 -5 5 -21 11 -37 6 -15 13 -40 14 -56 2 -15 8 -33 14
-41 6 -7 9 -32 6 -57 -3 -33 -2 -39 5 -21 11 26 42 31 34 5 -4 -12 1 -9 15 7
27 33 26 40 -4 40 -20 0 -25 5 -25 25 0 14 -5 24 -11 23 -6 -2 -15 7 -20 20
-7 18 -5 22 11 22 29 0 24 17 -6 24 -19 5 -25 12 -21 26 3 11 -1 21 -9 24 -8
3 -14 1 -14 -4z"/>
<path d="M5760 1009 c0 -5 5 -7 10 -4 6 3 10 8 10 11 0 2 -4 4 -10 4 -5 0 -10
-5 -10 -11z"/>
<path d="M5730 991 c0 -6 5 -13 10 -16 6 -3 10 1 10 9 0 9 -4 16 -10 16 -5 0
-10 -4 -10 -9z"/>
<path d="M5812 970 c-9 -16 -23 -30 -30 -30 -7 0 -10 5 -7 10 3 6 1 10 -4 10
-15 0 -14 -15 3 -29 10 -8 16 -9 21 -1 3 6 11 8 16 5 5 -4 9 1 9 9 0 10 6 13
15 10 11 -5 15 1 15 20 0 35 -17 33 -38 -4z"/>
<path d="M5747 916 c-6 -15 1 -26 15 -26 11 0 10 27 -1 34 -5 3 -11 0 -14 -8z"/>
<path d="M5775 840 c-3 -5 1 -10 10 -10 9 0 13 -4 10 -10 -3 -5 -1 -10 4 -10
6 0 11 9 11 20 0 21 -24 28 -35 10z"/>
<path d="M5647 778 c-3 -12 -2 -28 2 -36 5 -9 8 -1 9 22 2 41 -3 46 -11 14z"/>
<path d="M5690 789 c0 -5 5 -7 10 -4 6 3 10 8 10 11 0 2 -4 4 -10 4 -5 0 -10
-5 -10 -11z"/>
<path d="M5600 760 c-8 -5 -12 -12 -9 -15 4 -3 12 1 19 10 14 17 11 19 -10 5z"/>
<path d="M5745 760 c3 -5 8 -10 11 -10 2 0 4 5 4 10 0 6 -5 10 -11 10 -5 0 -7
-4 -4 -10z"/>
<path d="M5695 740 c-7 -12 2 -30 16 -30 5 0 9 9 9 20 0 21 -15 27 -25 10z"/>
<path d="M5561 694 c0 -11 3 -14 6 -6 3 7 2 16 -1 19 -3 4 -6 -2 -5 -13z"/>
<path d="M5620 670 c0 -5 5 -10 10 -10 6 0 10 5 10 10 0 6 -4 10 -10 10 -5 0
-10 -4 -10 -10z"/>
<path d="M5663 626 c3 -8 0 -16 -8 -18 -10 -2 -12 -8 -5 -18 11 -18 16 -13 25
23 5 18 3 27 -5 27 -7 0 -10 -6 -7 -14z"/>
<path d="M5520 530 c0 -5 5 -10 11 -10 5 0 7 5 4 10 -3 6 -8 10 -11 10 -2 0
-4 -4 -4 -10z"/>
<path d="M5696 373 c-6 -14 -5 -15 5 -6 7 7 10 15 7 18 -3 3 -9 -2 -12 -12z"/>
<path d="M5710 224 c0 -12 7 -27 15 -34 20 -17 21 9 0 36 -14 19 -14 19 -15
-2z"/>
<path d="M5470 19 c0 -5 5 -7 10 -4 6 3 10 8 10 11 0 2 -4 4 -10 4 -5 0 -10
-5 -10 -11z"/>
</g>
</svg>
